<?xml version="1.0" encoding="UTF-8" standalone="no"?>
<!-- Created with Inkscape (http://www.inkscape.org/) -->

<svg
   xmlns:dc="http://purl.org/dc/elements/1.1/"
   xmlns:cc="http://creativecommons.org/ns#"
   xmlns:rdf="http://www.w3.org/1999/02/22-rdf-syntax-ns#"
   xmlns:svg="http://www.w3.org/2000/svg"
   xmlns="http://www.w3.org/2000/svg"
   xmlns:sodipodi="http://sodipodi.sourceforge.net/DTD/sodipodi-0.dtd"
   xmlns:inkscape="http://www.inkscape.org/namespaces/inkscape"
   id="svg4270"
   version="1.1"
   inkscape:version="0.91 r13725"
   width="567.68732"
   height="380.11969"
   viewBox="0 0 567.68732 380.11969"
   sodipodi:docname="ageg.svg">
  <metadata
     id="metadata4276">
    <rdf:RDF>
      <cc:Work
         rdf:about="">
        <dc:format>image/svg+xml</dc:format>
        <dc:type
           rdf:resource="http://purl.org/dc/dcmitype/StillImage" />
        <dc:title></dc:title>
      </cc:Work>
    </rdf:RDF>
  </metadata>
  <defs
     id="defs4274" />
  <sodipodi:namedview
     pagecolor="#ffffff"
     bordercolor="#666666"
     borderopacity="1"
     objecttolerance="10"
     gridtolerance="10"
     guidetolerance="10"
     inkscape:pageopacity="0"
     inkscape:pageshadow="2"
     inkscape:window-width="1366"
     inkscape:window-height="734"
     id="namedview4272"
     showgrid="false"
     inkscape:zoom="0.236"
     inkscape:cx="134.5709"
     inkscape:cy="927.92902"
     inkscape:window-x="0"
     inkscape:window-y="16"
     inkscape:window-maximized="0"
     inkscape:current-layer="svg4270"
     fit-margin-top="0"
     fit-margin-left="0"
     fit-margin-right="0"
     fit-margin-bottom="0" />
  <g
     id="g4830"
     transform="matrix(0.40376029,0,0,0.40376029,88.143534,-34.706488)">
    <path
       style="fill:#fcca04"
       d="m 122.6521,893.33847 c 1.18366,-1.01116 6.13366,-4.97958 11,-8.81871 C 226.86582,810.98209 297.65016,738.78441 342.99202,671 360.62462,644.6399 378.64794,613.13089 377.62229,610.45809 377.31456,609.65614 377.45724,609 377.93936,609 c 2.10017,0 21.29972,-49.86 23.48921,-61 0.37835,-1.925 1.08373,-4.4 1.5675,-5.5 3.75182,-8.53077 8.0201,-38.17469 8.71109,-60.5 1.41813,-45.81823 -8.89408,-88.55199 -31.82087,-131.86555 C 365.70277,323.33877 351.18168,303.25228 327.44912,277.60004 310.55563,259.34005 283.64271,234.48475 281.91845,235.5504 281.4133,235.8626 281,235.72005 281,235.23362 c 0,-0.48642 -3.0375,-3.32548 -6.75,-6.30901 -3.7125,-2.98354 -6.90056,-5.76379 -7.08458,-6.17834 C 266.33497,220.87545 233.60406,198.06512 215.5,186.74039 192.62545,172.43156 175.11954,162.57679 152.10083,151.05049 143.24537,146.61624 136,142.77315 136,142.51029 c 0,-0.26286 1.4625,0.17118 3.25,0.96455 1.7875,0.79336 13.6,5.79534 26.25,11.1155 29.41104,12.36929 91.13295,41.85722 111.96377,53.4912 2.73007,1.52474 5.31757,2.5536 5.75,2.28634 0.43243,-0.26725 0.78623,0.20409 0.78623,1.04742 0,0.84334 1.4625,2.28265 3.25,3.19848 6.37962,3.26859 22.59508,13.26516 36.3113,22.38533 37.88524,25.19058 56.43749,40.2548 84.58915,68.68544 18.01722,18.19577 27.7907,30.10118 40.07392,48.81545 32.09964,48.90584 43.53567,101.0853 34.19008,156 -6.21309,36.50807 -23.02087,77.65621 -46.36875,113.51809 -3.05013,4.68495 -6.33902,9.40995 -7.30863,10.5 -0.96961,1.09005 -7.09704,9.18191 -13.61651,17.98191 -6.51946,8.8 -16.94817,21.85 -23.1749,29 -15.89901,18.25644 -58.35691,60.51995 -77.78104,77.42492 C 260.58498,805.55573 188.79557,856.23918 124,893.18147 c -3.02596,1.72521 -3.20852,1.74647 -1.3479,0.157 z"
       id="path4834"
       inkscape:connector-curvature="0" />
    <path
       style="fill:#1b883c"
       d="m 378.5,855.26998 c -3.42016,-0.85164 -10.2856,-5.26887 -10.97291,-7.05999 -0.44846,-1.16865 0.33185,-2.58826 2.47544,-4.50356 l 3.13034,-2.79695 3.42043,3.00318 c 10.64054,9.34251 27.71943,4.2476 27.71943,-8.26916 0,-5.28734 -3.70203,-8.63339 -12.90247,-11.66182 -9.78936,-3.22229 -17.78447,-7.43871 -19.72715,-10.40361 -0.91983,-1.40383 -2.16531,-4.69569 -2.76775,-7.31524 -3.22954,-14.04289 8.55954,-25.09351 25.62464,-24.01954 7.13587,0.44909 13.78007,2.9794 16.53275,6.29617 1.23626,1.4896 1.01301,2.03046 -1.91969,4.65083 -3.30925,2.95682 -3.32472,2.95968 -5.46585,1.01242 -3.57148,-3.24809 -6.26182,-4.20289 -11.83147,-4.19897 -9.20404,0.006 -15.60862,5.65348 -14.47817,12.76563 0.80147,5.04238 4.85388,8.4716 13.29217,11.24805 13.66386,4.49583 20.57068,9.46959 21.95407,15.80965 0.32078,1.47011 0.76254,3.2511 0.98169,3.95775 0.21915,0.70665 -0.0967,3.63165 -0.70183,6.5 -1.33164,6.31178 -7.1947,12.59896 -13.51488,14.49253 -3.97158,1.18992 -16.82851,1.49371 -20.84879,0.49263 z M 494,853.97879 c -5.63717,-2.63434 -8.6048,-5.37738 -11.33676,-10.47879 -3.00429,-5.60991 -2.97933,-18.25182 0.0474,-24 4.46487,-8.47945 11.77867,-12.74129 21.87482,-12.74672 12.75965,-0.007 20.16654,7.25294 21.93222,21.49672 l 0.71278,5.75 -19.24023,0 -19.24022,0 0.61683,3.08416 c 2.15391,10.76952 16.1566,15.3304 25.4064,8.27524 5.47921,-4.1792 11.90541,-0.9786 7.59805,3.78425 -5.69049,6.29225 -20.0255,8.73528 -28.37128,4.83514 z m 24,-29.59644 c 0,-1.70736 -1.35008,-3.96772 -3.88235,-6.5 C 510.52123,814.28594 509.81789,814 504.56799,814 c -3.11702,0 -6.95949,0.66821 -8.53881,1.48491 C 492.54939,817.28438 489,822.04074 489,824.90437 489,826.93553 489.44611,827 503.5,827 l 14.5,0 0,-2.61765 z m 74,29.53362 c -2.475,-1.12206 -5.5125,-2.99062 -6.75,-4.15235 l -2.25,-2.11225 0,3.67432 C 583,854.82695 582.84222,855 579.64974,855 l -3.35025,0 -0.64975,-9.15362 C 575.29238,840.81188 575,823.71188 575,807.84638 L 575,779 l 4,0 4,0 0,17 c 0,15.55627 0.56182,19.13604 2.50883,15.98571 1.74647,-2.82584 9.17319,-5.34526 15.65547,-5.3109 13.56615,0.0719 22.90718,8.89846 23.66808,22.36453 0.21065,3.72792 -0.13864,8.3586 -0.77619,10.2904 -4.44167,13.45839 -19.46524,20.29443 -32.05619,14.58623 z m 17.76344,-7.53929 c 6.68001,-4.86682 9.06644,-15.9652 5.16561,-24.02325 -5.80368,-11.9888 -23.3524,-12.16644 -29.70422,-0.30069 -4.86597,9.09003 -1.33066,21.72334 7.15429,25.56564 4.37901,1.98298 13.89074,1.30359 17.38432,-1.2417 z M 686.5,855.06493 C 675.51652,852.39102 669.04392,843.4679 669.04392,831 c 0,-10.42315 5.24051,-18.72329 14.17396,-22.44932 5.22835,-2.18068 17.17314,-2.01182 22.28212,0.31498 5.1438,2.34267 11.07244,8.93233 12.42788,13.81356 2.885,10.38952 -0.26857,22.42791 -7.27518,27.77211 -6.23062,4.75232 -15.95377,6.60962 -24.1527,4.6136 z m 17.25581,-8.89105 C 707.63943,843.4085 711,836.55314 711,831.39617 c 0,-5.27096 -3.68844,-12.34071 -7.89788,-15.1381 -4.73933,-3.14953 -13.4908,-3.15343 -18.11229,-0.008 -5.33587,3.63156 -7.31829,7.08588 -7.7399,13.48656 -0.51942,7.8857 2.48888,13.74718 8.75007,17.04897 5.6175,2.96235 13.0985,2.70465 17.75581,-0.61165 z m 39.83492,8.31359 c -10.00271,-3.82031 -15.60623,-12.25461 -15.56877,-23.43381 0.0494,-14.72564 9.81401,-24.25292 24.97804,-24.3708 14.89853,-0.11582 24.93324,9.45464 24.97246,23.81714 0.009,3.3 -0.42185,7.575 -0.95748,9.5 -1.3317,4.78603 -6.36144,10.62386 -11.36171,13.18711 -5.35783,2.74655 -16.54895,3.40615 -22.06254,1.30036 z m 19.24731,-8.37214 c 6.36143,-4.52974 9.01179,-14.75231 5.81092,-22.41307 -1.84476,-4.41513 -7.84277,-9.46039 -12.22404,-10.28232 -4.59371,-0.86179 -10.42835,0.87062 -14.51583,4.31001 -8.96542,7.5439 -7.56393,23.13028 2.61129,29.04103 5.21379,3.02867 13.56321,2.72982 18.31766,-0.65565 z m 89.78673,8.4763 c -9.14945,-3.40471 -14.5737,-11.9879 -14.59304,-23.09163 -0.027,-15.51761 9.39956,-25.07691 24.57489,-24.92088 12.08294,0.12423 20.1151,8.08502 21.14864,20.96068 l 0.51856,6.4602 -19.13691,0 C 852.55686,834 846,834.35628 846,835.03984 c 0,2.14709 4.03895,8.84564 6.50154,10.78271 5.40788,4.25384 15.4543,3.60982 21.37256,-1.37007 l 2.96504,-2.49491 2.79793,2.40668 c 2.45372,2.1106 2.6272,2.61239 1.41015,4.07885 -0.76328,0.91969 -3.38372,2.84187 -5.82321,4.27151 -5.48773,3.21602 -16.53519,4.13359 -22.59924,1.87702 z M 875.4407,824.75 C 872.98223,816.7803 869.12713,814 860.53497,814 c -4.89223,0 -5.98761,0.39256 -9.06857,3.25 -1.92733,1.7875 -3.91431,4.7125 -4.41551,6.5 l -0.91128,3.25 14.99758,0 14.99759,0 -0.69408,-2.25 z M 426,817.06037 426,779 l 4,0 4,0 0,16.5 c 0,9.075 0.25737,16.5 0.57193,16.5 0.31456,0 2.57216,-1.17221 5.01689,-2.60492 3.33957,-1.95712 5.87069,-2.61792 10.17807,-2.65718 6.89916,-0.0629 11.07357,1.87539 14.93142,6.93298 2.74185,3.59454 2.80932,4.0008 3.15903,19.02212 0.19653,8.44203 0.0636,16.91466 -0.29532,18.82807 C 466.96646,854.69569 466.60718,855 463.45469,855 L 460,855 460,838.96788 C 460,817.34334 458.52919,814 449.01608,814 c -5.43548,0 -9.31433,2.12847 -12.10368,6.64175 -2.0236,3.27425 -2.34448,5.39058 -2.84655,18.77424 L 433.5,854.5 l -3.75,0.31037 -3.75,0.31036 0,-38.06036 z m 113.60699,36.35784 C 539.27314,852.54823 539,841.97323 539,829.91821 L 539,808 l 3.5,0 c 3.23425,0 3.5,0.23136 3.5,3.04712 l 0,3.04713 3.75,-2.99727 c 3.57874,-2.86039 12.30998,-5.67168 14.73036,-4.74289 0.67,0.2571 0.97408,1.879 0.73548,3.92283 -0.38473,3.2955 -0.64492,3.51134 -4.79689,3.97933 -5.83231,0.65738 -9.1845,3.01419 -11.48078,8.07171 -1.57092,3.45993 -1.89799,6.60433 -1.91621,18.42204 L 547,855 l -3.39301,0 c -2.17149,0 -3.61153,-0.56946 -4,-1.58179 z M 637.99131,836.75 c -0.005,-10.0375 -0.29246,-20.6125 -0.63929,-23.5 l -0.6306,-5.25 4.13929,0 C 644.8055,808 645,808.14287 645,811.04047 l 0,3.04047 2.75,-2.57222 c 2.95054,-2.7598 12.42276,-6.04014 14.80342,-5.12659 0.88422,0.3393 1.44658,1.92793 1.44658,4.08649 0,3.41376 -0.1249,3.53143 -3.75,3.53293 -5.18631,0.002 -10.23441,2.84142 -12.41519,6.98285 -1.44602,2.74607 -1.83481,5.736 -1.83481,14.11043 0,5.84431 -0.28617,12.71383 -0.63592,15.2656 -0.61323,4.47397 -0.756,4.63957 -4,4.63957 L 638,855 637.991,836.75 Z M 790,817.06037 790,779 l 3.98222,0 3.98222,0 0.26778,24.21651 0.26778,24.21651 10.12225,-9.71651 10.12226,-9.71651 5.37774,0.0367 5.37775,0.0367 -10.83785,10.49657 -10.83784,10.49656 12.3003,12.71675 12.3003,12.71674 -5.46245,0.3361 -5.46246,0.3361 -11.71617,-12.32793 -11.71617,-12.32794 -0.28383,11.99184 L 797.5,854.5 l -3.75,0.31037 -3.75,0.31036 0,-38.06036 z M 514.0133,779.39411 C 507.83721,777.7346 504,775.55777 504,773.7136 c 0,-1.05927 6.64027,-11.73701 7.27657,-11.70093 0.12289,0.007 2.87434,1.35696 6.11435,3 8.45013,4.28512 16.12441,3.61415 20.97734,-1.83407 C 540.52621,760.75594 541.90618,752 540.13005,752 539.50852,752 539,752.38166 539,752.84813 c 0,2.17169 -7.96893,4.38684 -14.32543,3.98209 C 511.36344,755.98263 503,746.81208 503,733.06395 c 0,-8.56179 2.18109,-14.91395 6.7287,-19.59647 7.06982,-7.27956 16.76513,-8.59827 26.63038,-3.62214 l 5.64092,2.84534 0,-2.34534 C 542,708.10599 542.31958,708 549.07155,708 l 7.07155,0 -0.32155,27.25 c -0.36213,30.68863 -0.85064,33.05643 -8.14066,39.45707 -6.80624,5.97589 -21.34059,7.99929 -33.66759,4.68704 z m 21.94687,-37.02965 c 8.02978,-4.74331 7.92166,-16.04948 -0.19937,-20.84668 -7.3091,-4.3176 -17.7608,1.91146 -17.7608,10.58518 0,3.46685 0.62522,4.75756 3.88235,8.01469 3.11579,3.11579 4.61555,3.88235 7.59571,3.88235 2.04235,0 4.95929,-0.73599 6.48211,-1.63554 z m 48.6799,14.00357 c -6.19414,-1.90244 -13.69892,-9.19612 -15.41775,-14.98405 -4.06107,-13.67515 1.72632,-27.10428 13.9463,-32.36117 4.39699,-1.89154 6.5088,-2.18268 13.07502,-1.80256 6.62168,0.38332 8.47318,0.90464 11.98906,3.37569 5.67675,3.98977 8.90181,10.55172 9.53494,19.40053 L 618.26873,737 600.63437,737 C 590.93547,737 583,737.24735 583,737.54966 c 0,2.20033 3.52121,6.46979 6.50282,7.88466 4.12052,1.95531 8.61694,1.38713 12.38204,-1.56464 1.31167,-1.02832 2.99316,-1.86968 3.73665,-1.86968 1.9406,0 9.29547,5.27497 9.34054,6.69911 0.0528,1.66771 -6.19956,6.26451 -10.71002,7.87414 -4.91038,1.75234 -13.53212,1.66212 -19.61196,-0.20522 z M 603,725.93426 c 0,-1.6442 -2.14949,-5.29822 -3.91334,-6.65246 -0.87266,-0.67 -3.53378,-1.2325 -5.91358,-1.25 -3.47319,-0.0255 -4.90367,0.54495 -7.25,2.89128 C 580.6884,726.15776 581.66924,727 593,727 c 6.41124,0 10,-0.38247 10,-1.06574 z m 126.99353,31.19082 c -7.50883,-2.4621 -13.79614,-7.99751 -16.53108,-14.55414 -0.96288,-2.30835 -1.63892,-6.68454 -1.63892,-10.60912 0,-15.3326 10.35453,-24.96182 26.84203,-24.96182 7.55077,0 12.49796,2.14433 17.13704,7.42796 3.3239,3.78571 4.62379,7.63541 5.68014,16.82204 l 0.66117,5.75 -17.57195,0 c -19.08253,0 -19.5851,0.17099 -15.55632,5.29275 4.23021,5.37785 12.2296,5.64384 17.61375,0.58569 l 2.21543,-2.08129 4.52657,3.11436 c 2.48961,1.7129 4.7845,3.53172 5.09976,4.04181 0.76965,1.24531 -3.06126,4.74975 -7.97115,7.29185 -4.34895,2.25167 -16.09007,3.32803 -20.50647,1.87991 z M 746,724.57258 c 0,-6.15378 -11.61806,-9.04543 -16.54545,-4.11803 -1.35,1.35 -2.45455,3.375 -2.45455,4.5 0,1.91706 0.5963,2.04545 9.5,2.04545 9.39092,0 9.5,-0.0279 9.5,-2.42742 z m 110.36471,32.39766 c -5.94999,-1.83697 -12.6621,-7.2377 -15.2223,-12.24822 -6.54073,-12.80076 -2.51373,-27.31783 9.53692,-34.37998 5.38315,-3.15474 16.75025,-4.34546 22.7092,-2.37883 8.80669,2.90647 14.58472,11.92342 14.6017,22.78679 l 0.01,6.25 -17,0 c -15.53593,0 -16.99726,0.15071 -16.9682,1.75 0.0487,2.68149 2.29585,5.07113 6.36908,6.77303 4.37566,1.82827 9.54203,0.81868 13.1485,-2.56942 l 2.26685,-2.12959 5.06909,3.78443 c 4.87408,3.63883 5.0027,3.85781 3.34311,5.69163 -3.994,4.41332 -10.21202,7.00391 -17.58414,7.326 -3.92936,0.17168 -8.55517,-0.12345 -10.27958,-0.65584 z M 873,724.95455 c 0,-1.125 -1.10455,-3.15 -2.45455,-4.5 C 868.64408,718.55317 867.04426,718 863.44666,718 c -3.90598,0 -5.10542,0.4937 -7.54545,3.10576 C 850.97335,726.38104 851.7188,727 863,727 c 9.40741,0 10,-0.12121 10,-2.04545 z M 416,721.5 l 0,-35.5 8,0 8,0 0,34.86071 0,34.86071 -5.25,0.6306 c -2.8875,0.34683 -6.4875,0.63451 -8,0.63929 L 416,757 l 0,-35.5 z m 30,10.95431 0,-24.54569 6.75,0.29569 c 6.13136,0.26859 6.77926,0.50172 7.06929,2.54373 l 0.3193,2.24804 3.60286,-2.74804 c 3.21394,-2.45139 4.43996,-2.74804 11.35738,-2.74804 8.84508,0 11.94329,1.56856 15.09537,7.64247 1.55655,2.99941 1.86703,6.36796 2.06862,22.44331 L 492.5,756.5 l -7.1273,0.29133 -7.1273,0.29134 -0.4296,-15.29134 c -0.5295,-18.84687 -1.65393,-21.74284 -8.45502,-21.77602 C 462.17188,719.98025 460,725.92483 460,745.63649 L 460,757 l -7,0 -7,0 0,-24.54569 z m 182,0.0457 0,-24.5 7.5,0 c 7.30893,0 7.5,0.0629 7.5,2.46986 l 0,2.46987 3.6769,-2.49521 c 4.72449,-3.20613 7.19427,-3.78579 13.79715,-3.23823 6.48643,0.53791 11.87291,4.17769 13.36737,9.03267 0.55209,1.79357 1.30549,11.69854 1.67422,22.01104 l 0.6704,18.75 -7.47143,0 -7.47143,0 -0.42849,-15.25 c -0.51857,-18.45549 -1.70975,-21.69869 -7.9829,-21.73469 -7.58841,-0.0435 -9.07477,3.38535 -9.63831,22.23469 l -0.44098,14.75 -7.37625,0 -7.37625,0 0,-24.5 z m 60,0.0438 0,-24.54381 7.51778,0 7.51778,0 -0.26778,24.25 -0.26778,24.25 -7.25,0.29381 -7.25,0.29381 0,-24.54381 z m 84,-0.0438 0,-24.5 7.5,0 7.5,0 0,3.18709 0,3.18709 2.75,-2.62347 C 793.27734,708.38567 797.01519,707 802.5651,707 l 4.4349,0 0,6.75 0,6.75 -6.89501,0 c -11.4028,0 -13.09036,3.05964 -13.09941,23.75 L 787,757 l -7.5,0 -7.5,0 0,-24.5 z m 42,0 0,-24.5 8,0 8,0 -0.004,10.25 c -0.002,5.6375 -0.29701,16.6625 -0.65555,24.5 L 828.6889,757 821.34445,757 814,757 814,732.5 Z M 689.07431,698.5791 c -3.29559,-3.50799 -3.11632,-9.28605 0.38145,-12.29471 3.50475,-3.01466 7.65385,-2.90448 11.46751,0.3045 2.34291,1.97143 3.07673,3.41331 3.07673,6.04546 0,7.52283 -9.78272,11.41919 -14.92569,5.94475 z m 127.7507,1.38278 c -2.46528,-1.43841 -4.09128,-7.13133 -2.91814,-10.21692 1.23365,-3.24475 4.79393,-5.74496 8.18078,-5.74496 3.33362,0 7.49953,3.21906 8.30161,6.41479 0.73564,2.93103 -0.81328,7.42488 -3.17857,9.22191 -2.01508,1.53095 -7.99806,1.71828 -10.38568,0.32518 z m -229.12823,-6.95685 4.80322,-6.99496 10.25288,-0.005 10.25288,-0.005 -3.75288,3.30598 C 597.64396,699.53249 596.78452,700 589.59379,700 l -6.70022,0 4.80321,-6.99497 z M 543,655.3449 c -36.66177,-2.4904 -73.94825,-9.04999 -102.08222,-17.95871 -12.49266,-3.95585 -12.06381,-2.44766 -4.13169,-14.5305 6.15681,-9.37857 12.68125,-20.80374 18.7625,-32.85569 2.63646,-5.225 5.20344,-10.04052 5.7044,-10.70116 0.68761,-0.90678 2.30001,-0.58263 6.57892,1.32261 98.34892,43.79091 247.81231,54.99114 399.63463,29.94712 8.2316,-1.35785 15.10199,-2.33337 15.26754,-2.16782 0.16556,0.16555 -10.16939,3.05925 -22.96654,6.43044 C 777.1346,636.59943 694.40244,650.99463 629,654.9842 c -14.72088,0.89798 -74.40549,1.14831 -86,0.3607 z M 367.9911,603.3345 C 304.83061,561.19202 267.55079,494.36236 257.07457,404.5 c -3.55781,-30.51802 -3.36253,-75.92265 0.49246,-114.5 2.42509,-24.26819 8.95132,-66.02999 10.31003,-65.97461 0.34262,0.014 3.32294,2.27084 6.62294,5.01527 l 6,4.98987 0.10412,33.73474 c 0.13896,45.02248 2.82472,70.82612 10.90125,104.73473 10.7364,45.07583 30.20087,85.97556 56.8709,119.5 8.41001,10.57145 34.45346,36.32239 44.97555,44.47041 8.76545,6.78773 8.8461,6.89042 8.26494,10.5248 C 399.88673,557.81418 380.10108,609 377.64908,609 c -0.64179,0 -4.98788,-2.54948 -9.65798,-5.6655 z m 275.41101,-40.35296 c -20.87541,-2.97306 -36.51294,-16.79334 -40.46445,-35.76206 -1.86554,-8.95527 -0.69627,-24.08577 2.63682,-34.12068 7.0896,-21.34464 25.5382,-38.61336 46.54068,-43.56417 8.178,-1.92776 28.19955,-1.96298 37.15465,-0.0653 7.18316,1.52214 17.42114,6.41556 20.42436,9.76217 1.7696,1.97193 1.65535,2.15028 -5.69417,8.88909 -7.73741,7.09446 -9.81794,8.00868 -12.06474,5.30145 -4.60249,-5.54566 -20.45817,-9.45952 -31.14678,-7.68836 -25.67922,4.25518 -43.54871,32.50658 -36.20418,57.23828 5.48134,18.45767 21.47725,26.23615 44.4009,21.59122 11.05799,-2.24063 13.78944,-3.71864 14.44376,-7.81562 C 684.8666,527.74581 686,518.84577 686,516.55845 L 686,514 l -11,0 c -6.35436,0 -11,-0.40508 -11,-0.95915 0,-0.52754 0.4944,-4.28327 1.09867,-8.34608 l 1.09867,-7.38694 21.11551,-0.60639 c 11.61354,-0.33352 21.25834,-0.46358 21.43291,-0.28901 0.45457,0.45456 -7.51284,55.40168 -8.19287,56.50199 -1.72943,2.79828 -22.68905,8.77795 -33.59613,9.5848 -15.17549,1.1226 -18.57076,1.19213 -23.55465,0.48232 z m 181.62213,-1.52896 c -7.13371,-1.98953 -13.28671,-5.65339 -19.75178,-11.76139 -6.23988,-5.89525 -9.47646,-11.14524 -11.80144,-19.14287 -2.33478,-8.03136 -1.61436,-28.44339 1.29073,-36.5708 8.28874,-23.18898 23.69965,-37.99504 45.88123,-44.08046 6.81879,-1.87071 9.58949,-2.06995 22.80932,-1.64021 12.00783,0.39035 16.25979,0.92466 21.0477,2.64493 6.13679,2.20491 16.5,8.45473 16.5,9.95079 0,0.87193 -12.15536,12.0205 -14.72648,13.50673 -0.98319,0.56833 -2.39209,0.18982 -4.16072,-1.11779 -12.33136,-9.11696 -29.7669,-10.54424 -44.00685,-3.60241 -8.22874,4.01142 -16.45234,12.70385 -20.89208,22.08314 -3.60096,7.6073 -3.682,8.04076 -3.69776,19.77776 -0.0149,11.13571 0.17761,12.36012 2.67349,17 3.74298,6.95825 8.22284,11.33109 14.73936,14.38726 4.99753,2.34377 6.70343,2.60441 16.57104,2.53186 8.89444,-0.0654 12.3399,-0.54393 18,-2.5 l 7,-2.41912 1.68504,-11 c 2.63932,-17.22961 3.67966,-15.5 -9.32313,-15.5 l -11.1381,0 0.6868,-6.75 c 1.26505,-12.43326 -0.72706,-11.25163 18.9478,-11.23899 21.65719,0.0139 24.64159,0.4518 24.64159,3.61567 0,1.30075 -1.57379,13.27937 -3.49731,26.61916 -1.92352,13.33979 -3.49852,24.75521 -3.5,25.3676 -0.004,1.44897 -9.5088,5.67438 -19.00269,8.44731 -10.01315,2.92459 -38.45793,3.76737 -46.97576,1.39183 z M 494.10941,555.25 c 5.24311,-9.25863 39.70776,-69.0098 44.84643,-77.75 2.58691,-4.4 7.06389,-12.1624 9.94884,-17.24978 5.87444,-10.35909 6.11568,-10.50578 16.52978,-10.05113 l 6.89262,0.30091 9.31619,32 C 597.00375,535.26145 604,559.62895 604,560.36706 c 0,0.38414 -5.0625,0.5712 -11.25,0.41569 L 581.5,560.5 l -2.12062,-8 c -1.16634,-4.4 -2.64618,-9.9125 -3.28854,-12.25 l -1.16793,-4.25 -24.21145,0.0233 -24.21146,0.0233 -6.80952,12.47673 -6.80951,12.47674 -11.01388,0 -11.01387,0 3.25619,-5.75 z M 570,518.03659 c 0,-0.52988 -2.30576,-10.50254 -5.1239,-22.16147 -4.9015,-20.27795 -5.19448,-21.1037 -6.75,-19.02412 -0.89436,1.19566 -6.27172,11.16832 -11.9497,22.16147 L 535.85279,519 552.9264,519 C 563.20987,519 570,518.61685 570,518.03659 Z M 709.97149,560.25 c -0.0157,-0.4125 3.4419,-25.3875 7.68353,-55.5 l 7.71204,-54.75 30.06647,0.007 c 16.53656,0.004 33.12794,0.29622 36.86974,0.64958 l 6.80327,0.64247 -0.69369,5.5521 c -0.38153,3.05366 -1.00003,6.69885 -1.37443,8.10042 L 796.35768,467.5 769.42884,468 742.5,468.5 l -1.17871,9 c -0.6483,4.95 -1.46337,10.9125 -1.81128,13.25 l -0.63256,4.25 25.00226,0 c 13.75124,0 25.24981,0.40055 25.55238,0.89011 0.30256,0.48956 0.034,4.53956 -0.59677,9 L 787.68843,513 l -25.69116,0 -25.69116,0 -1.69657,12.75 c -0.93311,7.0125 -1.91056,13.7625 -2.17211,15 l -0.47553,2.25 27.96003,0 c 15.37802,0 28.15084,0.3375 28.38404,0.75 0.2332,0.4125 -0.0112,4.18264 -0.54314,8.37808 l -0.96715,7.62808 -4.53741,0.62192 c -6.48314,0.88861 -72.25256,0.77208 -72.28678,-0.12808 z M 277.70187,208.37252 c -2.63896,-1.35287 -5.04702,-3.1084 -5.35124,-3.90118 -1.24254,-3.23801 12.59334,-55.31135 22.84259,-85.97134 5.60035,-16.7531 8.79206,-24.754137 7.37989,-18.5 -6.11094,27.0637 -8.15961,37.22318 -11.49412,57 -2.17925,12.925 -4.74591,30.025 -5.70369,38 -0.95777,7.975 -1.99653,14.79977 -2.30835,15.16615 -0.31182,0.36638 -2.72611,-0.44075 -5.36508,-1.79363 z"
       id="path4832"
       inkscape:connector-curvature="0" />
  </g>
</svg>
