<?xml version="1.0" encoding="UTF-8" standalone="no"?>
<svg
   viewBox="0 0 368.25537 183.50136"
   height="183.50136"
   width="368.25537"
   version="1.1"
   id="svg10931"
   inkscape:version="1.1 (c68e22c387, 2021-05-23)"
   sodipodi:docname="coveo.svg"
   xmlns:inkscape="http://www.inkscape.org/namespaces/inkscape"
   xmlns:sodipodi="http://sodipodi.sourceforge.net/DTD/sodipodi-0.dtd"
   xmlns="http://www.w3.org/2000/svg"
   xmlns:svg="http://www.w3.org/2000/svg"
   xmlns:rdf="http://www.w3.org/1999/02/22-rdf-syntax-ns#"
   xmlns:cc="http://creativecommons.org/ns#"
   xmlns:dc="http://purl.org/dc/elements/1.1/">
  <sodipodi:namedview
     pagecolor="#ffffff"
     bordercolor="#666666"
     borderopacity="1"
     objecttolerance="10"
     gridtolerance="10"
     guidetolerance="10"
     inkscape:pageopacity="0"
     inkscape:pageshadow="2"
     inkscape:window-width="1920"
     inkscape:window-height="1017"
     id="namedview4929"
     showgrid="false"
     inkscape:zoom="0.73219577"
     inkscape:cx="-112.67478"
     inkscape:cy="287.49142"
     inkscape:window-x="1912"
     inkscape:window-y="843"
     inkscape:window-maximized="1"
     inkscape:current-layer="svg10931"
     inkscape:pagecheckerboard="1"
     width="368.25537px" />
  <metadata
     id="metadata10937">
    <rdf:RDF>
      <cc:Work
         rdf:about="">
        <dc:format>image/svg+xml</dc:format>
        <dc:type
           rdf:resource="http://purl.org/dc/dcmitype/StillImage" />
      </cc:Work>
    </rdf:RDF>
  </metadata>
  <defs
     id="defs10935" />
  <path
     id="path11499"
     d="M 22.967689,128.86188 C 7.548377,123.36418 -1.373928,108.47809 1.442143,92.948403 3.943318,79.155252 13.433594,69.436343 27.30624,66.461186 c 5.67264,-1.21656 14.1249,-0.576807 19.11431,1.446776 l 3.77046,1.529196 v 7.536482 7.536488 l -3.10904,-2.729767 c -7.6382,-6.706427 -18.91085,-6.708152 -26.527088,-0.0043 -7.853256,6.912704 -9.880047,17.297074 -5.185137,26.566229 5.96008,11.76695 20.924445,14.76214 31.905975,6.38611 l 2.91529,-2.2234 v 7.19072 7.19071 l -3.32687,1.46728 c -5.14649,2.26978 -18.17835,2.5469 -23.896451,0.50813 z"
     style="fill:#014990;fill-opacity:1"
     inkscape:connector-curvature="0" />
  <path
     id="path11497"
     d="m 103.421,66.157271 c -7.23908,0 -9.13173,0.328663 -13.41421,2.328817 -9.51769,4.445269 -15.51139,11.822934 -18.24929,22.461926 -4.16215,16.173406 5.49587,32.731946 22.34826,38.317246 5.22581,1.73196 17.5737,1.03022 22.81819,-1.29748 4.82683,-2.1423 11.5571,-8.03599 14.5121,-12.70726 10.24519,-16.195666 3.35195,-38.392928 -14.51348,-46.734232 -4.37864,-2.044357 -6.22693,-2.369017 -13.50157,-2.369017 z m 0,11.110369 c 11.74372,0 20.76641,9.030077 20.79296,20.809579 0.0198,8.777481 -4.93068,16.267831 -13.07184,19.778261 -3.83962,1.65562 -12.95119,1.27573 -16.68148,-0.69588 -6.88665,-3.63987 -11.67733,-11.46917 -11.67733,-19.082381 0,-11.511457 9.22112,-20.809579 20.63769,-20.809579 z"
     style="fill:#014990;fill-opacity:1"
     inkscape:connector-curvature="0" />
  <path
     id="path11493"
     d="m 258.51423,66.205788 c -0.75707,-0.0064 -1.58551,-0.0035 -2.5007,0.0043 -6.81558,0.05671 -9.25905,0.457401 -12.77103,2.094549 -6.17949,2.880649 -11.39878,8.611883 -13.9396,15.30777 -2.84777,7.504792 -3.01357,20.923923 -0.34792,28.141173 2.95331,7.99609 10.54106,15.12698 19.07406,17.92629 1.21986,0.40019 5.67435,0.61774 9.89883,0.48378 6.70569,-0.21264 8.43372,-0.62555 13.60829,-3.25201 3.33622,-1.69337 7.28101,-4.5801 9.02553,-6.60523 5.27516,-6.12366 5.27457,-6.19955 -0.11505,-9.02136 l -4.80179,-2.51457 -4.32216,4.5093 c -5.10707,5.32656 -9.07639,6.87652 -16.27672,6.35571 -6.08174,-0.43992 -10.63542,-3.47653 -13.82177,-9.21682 -2.53865,-4.57344 -3.60028,-10.11576 -1.94345,-10.14558 0.66423,-0.012 11.188,-0.11174 23.38652,-0.22179 l 22.17915,-0.199609 -0.10258,-5.322992 c -0.21898,-11.349991 -6.42303,-21.880047 -15.36044,-26.0716 -3.75633,-1.761677 -5.56965,-2.208014 -10.86917,-2.251187 z m -2.18465,9.610505 c 3.94055,-0.08675 7.71328,1.457599 11.2185,4.624348 3.41873,3.08863 5.96501,8.338196 4.88911,10.079042 -0.72375,1.171095 -32.0864,1.22935 -32.8085,0.06096 -1.15915,-1.875547 3.38577,-9.150946 7.24704,-11.599694 3.22172,-2.043157 6.38899,-3.09721 9.45385,-3.164684 z"
     style="fill:#014990;fill-opacity:1"
     inkscape:connector-curvature="0" />
  <path
     id="path11489"
     d="m 335.41488,66.139251 c -9.5092,0 -16.48311,2.624805 -22.62689,8.515409 -9.97762,9.566451 -12.67774,24.650627 -6.73968,37.65743 3.68482,8.07128 10.51855,13.99133 19.57863,16.95872 2.16484,0.70903 6.55508,1.06753 11.11869,0.90935 6.4553,-0.22375 8.405,-0.68782 13.54176,-3.2243 6.73295,-3.32467 10.96147,-7.51255 14.5703,-14.43031 2.21053,-4.23733 2.44821,-5.58766 2.4702,-14.004749 0.0223,-8.539911 -0.19248,-9.758281 -2.58664,-14.638233 -5.69112,-11.600119 -15.84464,-17.743317 -29.32637,-17.743317 z m -0.56696,11.18384 c 0.55609,-0.0029 1.12249,0.0132 1.69809,0.04578 7.3985,0.418046 12.592,3.551545 16.58308,10.006954 2.33993,3.784749 2.69061,5.179509 2.69061,10.701434 0,5.517731 -0.35114,6.918401 -2.6823,10.688961 -1.47537,2.38636 -4.39583,5.54179 -6.48879,7.01278 -3.24317,2.27939 -4.74617,2.71095 -10.18023,2.9221 -3.99527,0.15523 -7.37029,-0.20311 -9.03799,-0.96064 -10.92254,-4.96142 -15.7854,-17.865786 -10.75412,-28.534859 3.69324,-7.831695 9.8303,-11.84079 18.17165,-11.882472 z"
     style="fill:#014990;fill-opacity:1"
     inkscape:connector-curvature="0" />
  <path
     id="path11485"
     d="m 180.03423,128.46283 c -0.43307,-0.60993 -3.4917,-6.69811 -6.79695,-13.52929 -3.30525,-6.83117 -9.73685,-20.005586 -14.29247,-29.276469 -4.55559,-9.270883 -8.10949,-17.155574 -7.89755,-17.521526 0.21196,-0.36596 3.09145,-0.665375 6.39889,-0.665375 h 6.01351 l 3.80832,8.206284 c 2.09459,4.513453 4.71404,10.202408 5.82099,12.642114 1.10695,2.439706 3.23787,7.13059 4.73538,10.424194 1.49751,3.293608 2.94943,5.988378 3.2265,5.988378 0.27707,0 1.23888,-1.69671 2.13737,-3.77046 2.39918,-5.537443 6.74919,-15.02504 11.38931,-24.840642 l 4.08903,-8.649868 h 5.90287 c 3.24658,0 6.12189,0.219017 6.38958,0.486707 0.26768,0.267682 -1.91111,5.3578 -4.84177,11.311364 -2.93066,5.953558 -9.65457,19.707401 -14.94202,30.564099 -5.28744,10.85669 -9.78005,19.73944 -9.98355,19.73944 -0.2035,0 -0.72436,-0.49903 -1.15743,-1.10895 z"
     style="fill:#014990;fill-opacity:1"
     inkscape:connector-curvature="0" />
  <path
     id="path11481"
     d="M 230.28567,28.41209 V 0 l 2.88329,1.4845407 c 2.71701,1.3989187 17.15268,9.7565043 37.70455,21.8291923 5.00139,2.937959 9.09345,5.453593 9.09345,5.590322 0,0.228038 -3.67531,2.363992 -14.14805,8.222289 -2.1701,1.213927 -5.8805,3.34798 -8.24533,4.742327 -2.36482,1.394356 -4.41552,2.535187 -4.5571,2.535187 -0.14159,0 -5.15235,2.794573 -11.13506,6.210161 -5.98269,3.415588 -11.03921,6.210161 -11.23669,6.210161 -0.19748,0 -0.35906,-12.785444 -0.35906,-28.41209 z"
     style="fill:#f58020;fill-opacity:1"
     inkscape:connector-curvature="0" />
</svg>
