<?xml version="1.0" encoding="UTF-8" standalone="no"?>
<!-- Created with Inkscape (http://www.inkscape.org/) -->

<svg
   xmlns:dc="http://purl.org/dc/elements/1.1/"
   xmlns:cc="http://creativecommons.org/ns#"
   xmlns:rdf="http://www.w3.org/1999/02/22-rdf-syntax-ns#"
   xmlns:svg="http://www.w3.org/2000/svg"
   xmlns="http://www.w3.org/2000/svg"
   xmlns:sodipodi="http://sodipodi.sourceforge.net/DTD/sodipodi-0.dtd"
   xmlns:inkscape="http://www.inkscape.org/namespaces/inkscape"
   version="1.1"
   id="svg815"
   xml:space="preserve"
   width="853.33331"
   height="240"
   viewBox="0 0 853.33331 240"
   sodipodi:docname="Logo vectoriel.pdf"
   inkscape:version="0.92.4 (5da689c313, 2019-01-14)"><metadata
     id="metadata821"><rdf:RDF><cc:Work
         rdf:about=""><dc:format>image/svg+xml</dc:format><dc:type
           rdf:resource="http://purl.org/dc/dcmitype/StillImage" /><dc:title></dc:title></cc:Work></rdf:RDF></metadata><defs
     id="defs819"><clipPath
       clipPathUnits="userSpaceOnUse"
       id="clipPath833"><path
         d="M 0,0 H 640 V 180 H 0 Z"
         id="path831"
         inkscape:connector-curvature="0" /></clipPath></defs><sodipodi:namedview
     pagecolor="#ffffff"
     bordercolor="#666666"
     borderopacity="1"
     objecttolerance="10"
     gridtolerance="10"
     guidetolerance="10"
     inkscape:pageopacity="0"
     inkscape:pageshadow="2"
     inkscape:window-width="1920"
     inkscape:window-height="986"
     id="namedview817"
     showgrid="false"
     inkscape:zoom="0.72480471"
     inkscape:cx="278.06998"
     inkscape:cy="180.59737"
     inkscape:window-x="-11"
     inkscape:window-y="-11"
     inkscape:window-maximized="1"
     inkscape:current-layer="g823" /><g
     id="g823"
     inkscape:groupmode="layer"
     inkscape:label="Logo vectoriel"
     transform="matrix(1.3333333,0,0,-1.3333333,0,240)"><g
       id="g825" /><g
       id="g827"><g
         id="g829"
         clip-path="url(#clipPath833)"><path
           d="m 547.2388,62.2243 c -14.811,0 -27.043,12.5 -27.043,27.637 0,15.276 12.232,27.914 27.043,27.914 14.953,0 27.187,-12.638 27.187,-27.914 0,-15.137 -12.234,-27.637 -27.187,-27.637 m 0,77.776 c -27.182,0 -48.794,-22.363 -48.794,-50.139 0,-27.774 21.612,-49.861 48.794,-49.861 27.187,0 48.933,22.087 48.933,49.861 0,27.776 -21.746,50.139 -48.933,50.139 m -69.131,-48.613 h -27.316 c -1.495,0 -2.581,-1.113 -2.581,-2.638 v -13.749 c 0,-1.388 1.086,-2.5 2.581,-2.5 h 8.565 v -8.051 c -4.077,-1.673 -8.154,-2.225 -12.099,-2.225 -14.815,0 -26.91,12.5 -26.91,27.637 0,15.276 11.962,28.057 26.777,28.057 6.659,0 12.638,-1.807 17.802,-6.669 1.086,-0.832 2.586,-0.832 3.672,0.138 l 10.734,11.668 c 1.09,1.112 0.956,2.781 -0.268,3.751 -9.242,8.194 -21.75,13.056 -33.165,13.056 -27.048,0 -48.794,-22.225 -48.794,-50.001 0,-27.774 21.746,-49.724 48.794,-49.724 19.708,0 33.708,9.026 33.708,9.026 0.544,0.423 1.086,1.535 1.086,2.225 l -0.137,37.361 c 0,1.388 -1.087,2.638 -2.449,2.638 m -99.985,47.225 h -56.267 c -1.495,0 -2.582,-1.25 -2.582,-2.638 v -91.949 c 0,-1.387 1.087,-2.638 2.582,-2.638 h 56.267 c 1.5,0 2.586,1.251 2.586,2.638 v 15.139 c 0,1.397 -1.086,2.638 -2.586,2.638 h -37.647 v 18.75 h 30.992 c 1.357,0 2.577,1.121 2.577,2.647 v 15.136 c 0,1.388 -1.22,2.638 -2.577,2.638 h -30.992 v 17.221 h 37.647 c 1.5,0 2.586,1.254 2.586,2.642 v 15.138 c 0,1.388 -1.086,2.638 -2.586,2.638 m -113.367,-41.527 h -20.117 v 21.665 h 20.117 c 5.571,0 10.328,-4.721 10.328,-10.553 0,-5.836 -4.757,-11.112 -10.328,-11.112 m 31.395,11.526 c 0,16.526 -13.319,30.001 -29.63,30.001 h -40.639 c -1.494,0 -2.582,-1.25 -2.582,-2.638 v -91.949 c 0,-1.387 1.088,-2.638 2.582,-2.638 h 16.175 c 1.358,0 2.582,1.251 2.582,2.638 v 35.424 h 9.377 l 18.078,-36.811 c 0.272,-0.553 1.087,-1.251 2.175,-1.251 h 18.076 c 2.31,0 3.261,2.224 2.31,4.026 l -18.619,35.285 c 11.824,4.863 20.115,15.137 20.115,27.913 m -103.39,30.001 h -16.312 c -1.357,0 -2.581,-1.25 -2.581,-2.638 v -91.949 c 0,-1.387 1.224,-2.638 2.581,-2.638 h 16.312 c 1.357,0 2.581,1.251 2.581,2.638 v 91.949 c 0,1.388 -1.224,2.638 -2.581,2.638 m -58.782,1.388 h -2.175 c -0.679,0 -1.901,-0.552 -2.31,-1.388 l -31.531,-59.999 h -0.272 l -31.533,59.999 c -0.407,0.836 -1.631,1.388 -2.31,1.388 h -2.175 c -1.088,0 -2.313,-0.97 -2.448,-2.22 l -15.359,-93.332 c -0.271,-1.81 0.953,-3.061 2.585,-3.061 h 16.037 c 1.36,0 2.446,1.112 2.584,2.224 l 5.979,42.918 h 0.271 l 22.971,-45.003 c 0.407,-0.828 1.495,-1.526 2.31,-1.526 h 2.446 c 0.679,0 1.903,0.698 2.31,1.526 l 22.835,45.003 h 0.272 l 6.116,-42.918 c 0.136,-1.112 1.358,-2.224 2.582,-2.224 h 16.039 c 1.63,0 2.854,1.251 2.582,3.061 l -15.36,93.332 c -0.136,1.25 -1.358,2.22 -2.446,2.22"
           style="fill:#1c1c1c;fill-opacity:1;fill-rule:nonzero;stroke:none"
           id="path835"
           inkscape:connector-curvature="0" /></g></g></g></svg>