<svg xmlns="http://www.w3.org/2000/svg" viewBox="0 0 667.53 159.99"><defs><style>.cls-1{fill:#002a44;}.cls-2{fill:#00b7e2;}.cls-3{fill:#80dbf0;}.cls-4{fill:#91ed00;}.cls-5{fill:#01cfc5;}.cls-6{fill:#4af1e3;}.cls-7{fill:#d3f899;}.cls-8{fill:#02ece8;}.cls-9{fill:#b5f9f3;}</style></defs><title>Asset 2</title><g id="Layer_2" data-name="Layer 2"><g id="Layer_1-2" data-name="Layer 1"><path class="cls-1" d="M413.89,124.69,391.42,92.56l22.47-32.14a9,9,0,0,0,1-1.68,3.1,3.1,0,0,0,.33-1.66,1.82,1.82,0,0,0-.78-1.27,4,4,0,0,0-2.31-.51h-19.6a2.24,2.24,0,0,0-1.76.87c-.5.59-1.07,1.34-1.71,2.26L374.75,79.79,360.47,58.43c-.64-.92-1.21-1.67-1.71-2.26A2.27,2.27,0,0,0,357,55.3H337.65a4,4,0,0,0-2.31.51,1.82,1.82,0,0,0-.78,1.27,3.1,3.1,0,0,0,.33,1.66,9,9,0,0,0,1,1.68l22.47,32.14-22.47,32.13a8.73,8.73,0,0,0-1,1.69,3.07,3.07,0,0,0-.33,1.66,1.8,1.8,0,0,0,.78,1.26,4,4,0,0,0,2.31.51H357a2.27,2.27,0,0,0,1.77-.87c.5-.58,1.07-1.34,1.71-2.26l14.47-21.63,7.21,10.3,6.93,11.33c.64.92,1.21,1.68,1.71,2.26a2.24,2.24,0,0,0,1.76.87h19.6a4,4,0,0,0,2.31-.51,1.8,1.8,0,0,0,.78-1.26,3.07,3.07,0,0,0-.33-1.66A8.73,8.73,0,0,0,413.89,124.69Z"/><path class="cls-1" d="M160.07,36.38a2.84,2.84,0,0,1,.8-2,3.1,3.1,0,0,1,2.37-.84h21.45a5.4,5.4,0,0,1,2.09.45,4.53,4.53,0,0,1,1.87,1.56c6.1,8.86,28.65,43.91,34,51.61a1.31,1.31,0,0,0,2.36-.6V36a3.15,3.15,0,0,1,1.16-1.81,3.25,3.25,0,0,1,2-.65H246.6a4.1,4.1,0,0,1,2.52.75,2.46,2.46,0,0,1,1,2.1v90.9a2.19,2.19,0,0,1-.87,1.92,4,4,0,0,1-2.37.61H226a2.54,2.54,0,0,1-1.65-.58,10.82,10.82,0,0,1-1.52-1.56c-6.38-9.51-29.94-47.2-35.56-55.52a1.31,1.31,0,0,0-2.37.59V127a2.88,2.88,0,0,1-.72,2.14,3.63,3.63,0,0,1-2.59.71H163.24a3.16,3.16,0,0,1-2.41-.81,2.82,2.82,0,0,1-.76-2Z"/><path class="cls-1" d="M325.76,120.78a39.45,39.45,0,0,1-11.8,7.41,36.55,36.55,0,0,1-13.9,2.67,41,41,0,0,1-15.44-2.93,40.37,40.37,0,0,1-12.76-8.11,38.87,38.87,0,0,1-8.7-12.21,36.26,36.26,0,0,1-3.22-15.29,38.54,38.54,0,0,1,1.28-10,38.94,38.94,0,0,1,3.63-9,38.52,38.52,0,0,1,5.73-7.76,36.08,36.08,0,0,1,7.54-6.06,37.68,37.68,0,0,1,9.06-3.92,37.07,37.07,0,0,1,10.32-1.41,35.74,35.74,0,0,1,9.6,1.29,38.06,38.06,0,0,1,22.06,16.43A34.57,34.57,0,0,1,333,80.17a31.27,31.27,0,0,1,1.34,9.1q0,3-.09,5a5.62,5.62,0,0,1-.92,3.08,4.59,4.59,0,0,1-2.77,1.58,28,28,0,0,1-5.7.44H283.5a1.31,1.31,0,0,0-1.29,1.63,13.36,13.36,0,0,0,2.08,4.63,15.24,15.24,0,0,0,4.21,4,17.14,17.14,0,0,0,5.06,2.13,21.76,21.76,0,0,0,5.07.65,23.56,23.56,0,0,0,4.42-.44,31.32,31.32,0,0,0,4.38-1.17,25.49,25.49,0,0,0,3.87-1.7,13.16,13.16,0,0,0,2.84-2,11.31,11.31,0,0,1,1.64-1.14,2.87,2.87,0,0,1,1.46-.38,2.9,2.9,0,0,1,1.58.52,12.59,12.59,0,0,1,1.82,1.53l6.32,7a4,4,0,0,1,.83,1.38,4.46,4.46,0,0,1,.18,1.26,3.2,3.2,0,0,1-.66,2A7.08,7.08,0,0,1,325.76,120.78Zm-27.92-48c-9.34,0-15.46,7.68-15.46,11,0,1,.23,1.43,1.2,1.48h29c.7,0,.94-.35.94-1.37C313.5,80.37,307.33,72.82,297.84,72.82Z"/><path class="cls-1" d="M286.62,8.58h-8.44V7.28h18.28v1.3H288V29.93h-1.39Z"/><path class="cls-1" d="M308.37,20.06h1.06v-.55c0-3.59-1.84-4.82-4.43-4.82a7.6,7.6,0,0,0-4.62,1.55l-.78-1.1a8.46,8.46,0,0,1,5.47-1.78c3.72,0,5.72,2.07,5.72,6.12V29.93h-1.36V27.79a7.3,7.3,0,0,1,.13-1.45h-.06a6.23,6.23,0,0,1-5.66,4c-2.62,0-5.5-1.45-5.5-4.69C298.34,20.13,305.49,20.06,308.37,20.06Zm-4.47,9c3.53,0,5.53-3.65,5.53-6.85v-.88h-1c-2.75,0-8.64,0-8.64,4.21C299.76,27.24,301.15,29.05,303.9,29.05Z"/><path class="cls-1" d="M319.33,7.28h1.36v19c0,2.26,1.17,2.52,1.91,2.52a4.27,4.27,0,0,0,.49,0V30a2.84,2.84,0,0,1-.58.07c-.94,0-3.18-.36-3.18-3.4Z"/><path class="cls-1" d="M336.9,13.36c4.4,0,6.6,3.47,6.6,7.38,0,.36-.06.87-.06.87h-13c0,4.69,3.16,7.38,6.92,7.38a7.32,7.32,0,0,0,5-2l.75,1.13a8.84,8.84,0,0,1-5.76,2.23A8.13,8.13,0,0,1,329,21.87C329,16.41,332.76,13.36,336.9,13.36Zm5.18,7c-.16-3.94-2.53-5.72-5.21-5.72a6.29,6.29,0,0,0-6.31,5.72Z"/><path class="cls-1" d="M351.3,13.75h1.36V16.6a6.88,6.88,0,0,1-.13,1.33h.07a7.45,7.45,0,0,1,6.85-4.57c4.21,0,5.34,2.5,5.34,6.31V29.93h-1.36V20.16c0-2.82-.35-5.47-4-5.47a6.86,6.86,0,0,0-6.53,5.14,7.86,7.86,0,0,0-.26,2.2v7.9H351.3Z"/><path class="cls-1" d="M374,15.08h-2.13V13.85H374V9.26h1.36v4.59h4.24v1.23h-4.24V24c0,4.27,2.56,4.83,3.85,4.83a3.52,3.52,0,0,0,.75-.07V30a4.31,4.31,0,0,1-.81.07c-1.68,0-5.15-.62-5.15-6Z"/><path class="cls-1" d="M386.37,27a7.07,7.07,0,0,0,5,2c2,0,3.72-1,3.72-3,0-4.11-8.9-2.95-8.9-8.22,0-2.88,2.43-4.37,5.18-4.37a6.38,6.38,0,0,1,4.79,1.75l-.81,1.1a5.55,5.55,0,0,0-4.08-1.52c-1.84,0-3.65.84-3.65,2.94,0,4.21,8.89,2.95,8.89,8.32,0,2.59-2.2,4.36-5.17,4.36A7.84,7.84,0,0,1,385.5,28Z"/><path class="cls-1" d="M423.16,13.36c4.4,0,6.6,3.47,6.6,7.38a8,8,0,0,1-.07.87h-13c0,4.69,3.17,7.38,6.93,7.38a7.32,7.32,0,0,0,5-2l.74,1.13a8.8,8.8,0,0,1-5.75,2.23,8.12,8.12,0,0,1-8.35-8.44C415.3,16.41,419,13.36,423.16,13.36Zm5.18,7c-.17-3.94-2.53-5.72-5.21-5.72a6.29,6.29,0,0,0-6.31,5.72Z"/><path class="cls-1" d="M437.56,13.75h1.36V16.6a6.88,6.88,0,0,1-.13,1.33h.06a7.47,7.47,0,0,1,6.86-4.57c4.21,0,5.34,2.5,5.34,6.31V29.93h-1.36V20.16c0-2.82-.36-5.47-4-5.47a6.86,6.86,0,0,0-6.53,5.14,7.86,7.86,0,0,0-.26,2.2v7.9h-1.36Z"/><path class="cls-1" d="M480.65,20.06h1.07v-.55c0-3.59-1.84-4.82-4.43-4.82a7.65,7.65,0,0,0-4.63,1.55l-.77-1.1a8.45,8.45,0,0,1,5.46-1.78c3.72,0,5.73,2.07,5.73,6.12V29.93h-1.36V27.79a7.3,7.3,0,0,1,.13-1.45h-.06a6.23,6.23,0,0,1-5.66,4c-2.62,0-5.5-1.45-5.5-4.69C470.63,20.13,477.78,20.06,480.65,20.06Zm-4.46,9c3.53,0,5.53-3.65,5.53-6.85v-.88h-1c-2.75,0-8.64,0-8.64,4.21C472.05,27.24,473.44,29.05,476.19,29.05Z"/><path class="cls-1" d="M491.79,13.75h1.35v1.94a8.92,8.92,0,0,1-.09,1.3h.06a6.07,6.07,0,0,1,5.82-3.63c4.34,0,7,3.47,7,8.48s-3,8.47-7.18,8.47a6.19,6.19,0,0,1-5.66-3.65H493a7.16,7.16,0,0,1,.13,1.42V36.4h-1.35ZM498.74,29c3.17,0,5.76-2.62,5.76-7.15,0-4.37-2.33-7.15-5.63-7.15-3,0-5.76,2.1-5.76,7.18C493.11,25.46,495.12,29,498.74,29Z"/><path class="cls-1" d="M513.76,13.75h1.35v1.94A8.92,8.92,0,0,1,515,17h.06a6.07,6.07,0,0,1,5.82-3.63c4.34,0,7,3.47,7,8.48s-3,8.47-7.18,8.47a6.19,6.19,0,0,1-5.66-3.65H515a7.16,7.16,0,0,1,.13,1.42V36.4h-1.35Zm7,15.24c3.17,0,5.76-2.62,5.76-7.15,0-4.37-2.33-7.15-5.63-7.15-3,0-5.76,2.1-5.76,7.18C515.08,25.46,517.09,29,520.71,29Z"/><path class="cls-1" d="M535.56,7.28h1.36v19c0,2.26,1.17,2.52,1.91,2.52a4,4,0,0,0,.48,0V30a2.84,2.84,0,0,1-.58.07c-.94,0-3.17-.36-3.17-3.4Z"/><path class="cls-1" d="M546.27,7.28h1.62V9.64h-1.62Zm.13,6.47h1.36V29.93H546.4Z"/><path class="cls-1" d="M563.9,13.36a7.8,7.8,0,0,1,5.79,2.3l-.84,1.1a7,7,0,0,0-5-2.07A6.83,6.83,0,0,0,557,21.87,6.82,6.82,0,0,0,563.9,29a7.13,7.13,0,0,0,5.4-2.33l.72,1.13a8.28,8.28,0,0,1-6.12,2.52,8.12,8.12,0,0,1-8.34-8.44A8.23,8.23,0,0,1,563.9,13.36Z"/><path class="cls-1" d="M586.45,20.06h1.07v-.55c0-3.59-1.84-4.82-4.43-4.82a7.65,7.65,0,0,0-4.63,1.55l-.77-1.1a8.45,8.45,0,0,1,5.46-1.78c3.72,0,5.73,2.07,5.73,6.12V29.93h-1.36V27.79a7.3,7.3,0,0,1,.13-1.45h-.06a6.23,6.23,0,0,1-5.67,4c-2.62,0-5.49-1.45-5.49-4.69C576.43,20.13,583.57,20.06,586.45,20.06Zm-4.46,9c3.53,0,5.53-3.65,5.53-6.85v-.88h-1c-2.75,0-8.64,0-8.64,4.21C577.85,27.24,579.24,29.05,582,29.05Z"/><path class="cls-1" d="M598,15.08h-2.14V13.85H598V9.26h1.36v4.59h4.23v1.23h-4.23V24c0,4.27,2.55,4.83,3.85,4.83a3.47,3.47,0,0,0,.74-.07V30a4.18,4.18,0,0,1-.81.07c-1.68,0-5.14-.62-5.14-6Z"/><path class="cls-1" d="M610.75,7.28h1.62V9.64h-1.62Zm.13,6.47h1.36V29.93h-1.36Z"/><path class="cls-1" d="M628.35,13.36a8.32,8.32,0,0,1,8.38,8.38,8.38,8.38,0,1,1-16.76,0A8.33,8.33,0,0,1,628.35,13.36Zm0,15.63a7,7,0,0,0,7-7.25,7,7,0,1,0-13.91,0A7,7,0,0,0,628.35,29Z"/><path class="cls-1" d="M644.47,13.75h1.36V16.6a6.88,6.88,0,0,1-.13,1.33h.06a7.47,7.47,0,0,1,6.86-4.57c4.21,0,5.34,2.5,5.34,6.31V29.93H656.6V20.16c0-2.82-.36-5.47-4-5.47a6.85,6.85,0,0,0-6.53,5.14,7.86,7.86,0,0,0-.26,2.2v7.9h-1.36Z"/><path class="cls-1" d="M543.06,54.2c-21,0-39.32,15.87-40,36.67l0,0v.86c0,.14,0,.28,0,.42s0,.28,0,.42v55a3.4,3.4,0,0,0,.47,1.78,4.38,4.38,0,0,0,1.17,1.32,5.51,5.51,0,0,0,1.51.81,4.42,4.42,0,0,0,1.52.29h14.66a2.57,2.57,0,0,0,2.49-1.22,4.43,4.43,0,0,0,1-3V129.3c0-1.9.39-2.94,2.15-2.23a29,29,0,0,0,15,3.75,38.7,38.7,0,0,0,38.71-38.7C581.77,70.74,564.44,54.2,543.06,54.2Zm-.26,57.45c-10.5,0-19.27-8.25-19.27-18.75s8.77-18.75,19.27-18.75,19.27,8.25,19.27,18.75S553.3,111.65,542.8,111.65Z"/><path class="cls-1" d="M628.82,54.2c-21,0-39.32,15.87-40,36.67l0,0v.86c0,.14,0,.28,0,.42s0,.28,0,.42v55a3.4,3.4,0,0,0,.47,1.78,4.49,4.49,0,0,0,1.16,1.32,5.71,5.71,0,0,0,1.52.81,4.42,4.42,0,0,0,1.52.29h14.66a2.54,2.54,0,0,0,2.48-1.22,4.44,4.44,0,0,0,1.06-3V129.3c0-1.9.39-2.94,2.14-2.23a29,29,0,0,0,15,3.75,38.7,38.7,0,0,0,38.71-38.7C667.53,70.74,650.2,54.2,628.82,54.2Zm-.26,57.45c-10.5,0-19.27-8.25-19.27-18.75s8.77-18.75,19.27-18.75,19.27,8.25,19.27,18.75S639.06,111.65,628.56,111.65Z"/><path class="cls-1" d="M453.83,54.38c-21.38,0-39.23,16.54-39.23,37.92S432.45,131,453.83,131a30.1,30.1,0,0,0,9.94-1.67l0,0c.71-.22,1.38-.45,2-.68l.09,0a27.1,27.1,0,0,0,4-1.83c1.06-.59,2.25-1.24,2.76-.06a10.31,10.31,0,0,0,.82,1.83,3.15,3.15,0,0,0,1.23.9,7.45,7.45,0,0,0,2.35.32h12.32a8.38,8.38,0,0,0,1.52-.17,3,3,0,0,0,1.52-.82,3,3,0,0,0,1.17-1.43,5.25,5.25,0,0,0,.34-1.9V90.82l0,.06C493.1,70.16,474.73,54.38,453.83,54.38Zm-19,38.44a19,19,0,1,1,19,18.75A18.79,18.79,0,0,1,434.82,92.82Z"/><path class="cls-2" d="M13.29,59.62a8.79,8.79,0,0,1,0-12.41L47.21,13.29a8.79,8.79,0,0,1,12.41,0L80.4,34.07a18.15,18.15,0,0,1,18.67,4.25l-33-33a18.18,18.18,0,0,0-25.62,0L5.28,40.42A18.18,18.18,0,0,0,5.28,66L25.55,86.3l7.21-7.21Z"/><path class="cls-3" d="M47.21,13.29,13.29,47.21a8.79,8.79,0,0,0,0,12.41L32.76,79.09,73.49,38.35a18,18,0,0,1,6.91-4.28L59.62,13.29A8.79,8.79,0,0,0,47.21,13.29Z"/><path class="cls-4" d="M70.11,128.26,59.19,139.19a8.83,8.83,0,0,1-12.46,0L23.49,116a8.84,8.84,0,0,1,0-12.47l9.62-9.63L25.55,86.3,7.63,104.22a18.16,18.16,0,0,0,0,25.62L32.49,154.7a18.16,18.16,0,0,0,25.62,0L88.82,124A18.14,18.14,0,0,1,70.11,128.26Z"/><path class="cls-5" d="M125.22,64.6A17.36,17.36,0,0,0,124,63.24L99.07,38.32A18.15,18.15,0,0,0,80.4,34.07L92.81,46.48l0,0,23.23,23.24,0,0h0a8.82,8.82,0,0,1,0,12.42L88.61,109.74l-18.5,18.52A18.14,18.14,0,0,0,88.82,124L124,88.84A18.18,18.18,0,0,0,125.22,64.6Z"/><rect class="cls-5" x="27.83" y="81.13" width="10.2" height="10.69" transform="translate(-51.5 48.62) rotate(-45)"/><path class="cls-6" d="M32.76,79.09l7.55,7.56L80.4,46.52a8.82,8.82,0,0,1,12.41,0L80.4,34.07a18,18,0,0,0-6.91,4.28Z"/><path class="cls-7" d="M33.11,93.86l-9.62,9.63a8.84,8.84,0,0,0,0,12.47l23.24,23.23a8.83,8.83,0,0,0,12.46,0l10.92-10.93A24.52,24.52,0,0,1,62.24,123Z"/><path class="cls-8" d="M69.79,116.13,40.31,86.65l-7.2,7.21L62.24,123a24.52,24.52,0,0,0,7.87,5.27l12.09-12.1A8.81,8.81,0,0,1,69.79,116.13Z"/><path class="cls-9" d="M80.4,46.52,40.31,86.65l29.48,29.48a8.81,8.81,0,0,0,12.41,0l6.41-6.42L116.13,82.2a8.81,8.81,0,0,0,0-12.42l-23.3-23.3A8.82,8.82,0,0,0,80.4,46.52Z"/></g></g></svg>