<?xml version="1.0" encoding="UTF-8" standalone="no"?>
<!-- Created with Inkscape (http://www.inkscape.org/) -->

<svg
   xmlns:dc="http://purl.org/dc/elements/1.1/"
   xmlns:cc="http://creativecommons.org/ns#"
   xmlns:rdf="http://www.w3.org/1999/02/22-rdf-syntax-ns#"
   xmlns:svg="http://www.w3.org/2000/svg"
   xmlns="http://www.w3.org/2000/svg"
   xmlns:sodipodi="http://sodipodi.sourceforge.net/DTD/sodipodi-0.dtd"
   xmlns:inkscape="http://www.inkscape.org/namespaces/inkscape"
   width="484.25293mm"
   height="110.34385mm"
   viewBox="0 0 1715.8568 390.98214"
   id="svg10155"
   version="1.1"
   inkscape:version="0.91 r13725"
   sodipodi:docname="sherweb.svg">
  <defs
     id="defs10157" />
  <sodipodi:namedview
     id="base"
     pagecolor="#ffffff"
     bordercolor="#666666"
     borderopacity="1.0"
     inkscape:pageopacity="0.0"
     inkscape:pageshadow="2"
     inkscape:zoom="0.35"
     inkscape:cx="460.21729"
     inkscape:cy="452.62499"
     inkscape:document-units="px"
     inkscape:current-layer="layer1"
     showgrid="false"
     fit-margin-top="0"
     fit-margin-left="0"
     fit-margin-right="0"
     fit-margin-bottom="0"
     inkscape:window-width="1366"
     inkscape:window-height="734"
     inkscape:window-x="0"
     inkscape:window-y="16"
     inkscape:window-maximized="0" />
  <metadata
     id="metadata10160">
    <rdf:RDF>
      <cc:Work
         rdf:about="">
        <dc:format>image/svg+xml</dc:format>
        <dc:type
           rdf:resource="http://purl.org/dc/dcmitype/StillImage" />
        <dc:title></dc:title>
      </cc:Work>
    </rdf:RDF>
  </metadata>
  <g
     inkscape:label="Calque 1"
     inkscape:groupmode="layer"
     id="layer1"
     transform="translate(946.64586,-594.00506)">
    <path
       style="fill:#1b5ebb;fill-opacity:1"
       d="m -763.57141,977.85962 c -23.20758,-14.34765 -63.77647,-41.69432 -73.59467,-49.60869 -5.55207,-4.47547 -14.73987,-12.54917 -20.41734,-17.94155 -10.37552,-9.85452 -28.98799,-29.85352 -28.98799,-31.14745 0,-0.98848 14.55366,-10.53974 20.5,-13.45372 14.1395,-6.92901 28.5117,-10.17085 44.5,-10.03758 31.91945,0.26607 65.14906,13.80407 109.5,44.61114 14.68217,10.19853 41.50296,30.61382 41.4943,31.58437 -0.007,0.83325 -27.0148,19.57552 -42.9943,29.83671 -20.50672,13.16832 -36.93503,23.30339 -37.74245,23.28432 -0.41665,-0.01 -5.93255,-3.21724 -12.25755,-7.12755 z"
       id="path10770"
       inkscape:connector-curvature="0" />
    <path
       style="fill:#78b0e7;fill-opacity:1"
       d="m -666.60147,917.96079 c -5.62789,-8.28744 -11.37929,-20.69768 -14.57782,-31.45573 -3.57905,-12.0379 -4.41737,-31.66918 -1.9218,-45.00346 6.49206,-34.68816 27.56264,-73.29808 67.3392,-123.39296 l 7.46099,-9.39642 1.87442,2.39642 c 11.51601,14.72299 51.26036,77.39787 50.43864,79.53924 -2.29252,5.97421 -45.0976,70.13393 -55.51409,83.20901 -12.8022,16.06971 -46.86658,50.14817 -50.12744,50.14817 -0.47714,0 -2.71458,-2.71992 -4.9721,-6.04427 z"
       id="path10768"
       inkscape:connector-curvature="0" />
    <path
       style="fill:#1b5ebb;fill-opacity:1"
       d="m -439.57141,901.47917 c -0.825,-0.16164 -4.875,-0.83419 -9,-1.49456 -16.64032,-2.66393 -36.02905,-10.53986 -51.27791,-20.82968 -8.49592,-5.73299 -20.96603,-16.91804 -20.4817,-18.37104 0.17004,-0.51013 7.01231,-6.93605 15.20504,-14.27982 l 14.89587,-13.35231 7.99964,6.84575 c 23.54736,20.15079 51.87103,27.24241 80.03554,20.03914 19.44929,-4.97429 29.81073,-15.20114 29.92025,-29.53159 0.053,-6.93247 -1.69407,-10.9679 -6.51081,-15.03905 -7.30362,-6.17307 -17.92376,-9.11835 -48.51608,-13.45496 -42.75911,-6.06132 -58.60707,-11.34695 -71.56863,-23.86967 -9.32596,-9.01021 -14.10719,-19.5746 -15.29272,-33.79014 -1.43791,-17.24188 4.31632,-33.05837 16.47477,-45.28375 11.43049,-11.49341 24.50422,-18.59276 43.80356,-23.78639 9.08191,-2.44403 11.37808,-2.64586 30.81318,-2.70843 22.72237,-0.0732 28.77959,0.69115 43.65443,5.5083 15.14628,4.90505 29.3046,12.95743 39.87926,22.68086 l 5.25727,4.83407 -15.28926,13.67897 -15.28925,13.67897 -5.60623,-4.79165 c -8.60433,-7.35413 -11.99546,-9.6787 -19.85724,-13.61187 -10.88241,-5.44435 -20.42472,-7.54799 -34.15894,-7.53048 -18.61246,0.0237 -31.29032,4.13935 -39.20678,12.72769 -5.0386,5.46624 -6.88326,9.79707 -6.88326,16.16031 0,6.08862 1.30187,9.72365 4.81362,13.44047 6.59481,6.9799 17.80252,10.21991 50.63759,14.63868 12.62316,1.69876 26.79816,3.93219 31.5,4.96319 18.7866,4.11942 34.01141,11.66127 42.10703,20.85838 14.21218,16.14589 17.01453,44.50037 6.49296,65.6965 -7.47231,15.05326 -18.18555,25.15193 -36.0512,33.98309 -12.2057,6.03339 -21.30503,8.86457 -35.5,11.04552 -8.19236,1.25869 -28.44044,1.83883 -33,0.9455 z"
       id="path10766"
       inkscape:connector-curvature="0" />
    <path
       style="fill:#1b5ebb;fill-opacity:1"
       d="m -49.255859,722.59375 c -7.265303,0.008 -14.746342,0.59972 -20.300782,1.77344 -33.437409,7.06573 -58.238259,29.3667 -68.554689,61.63867 -3.64138,11.39103 -4.55992,31.41458 -2.02148,44.08789 3.14975,15.72529 10.82418,30.6077 21.96679,42.59961 14.47171,15.57476 32.945225,25.01866 56.093754,28.67187 7.2571,1.14529 29.11422,-0.23337 37,-2.33398 10.72081,-2.85581 24.43408784,-9.6172 34.0859379,-16.80469 9.0150301,-6.71328 23.0309991,-21.02915 21.7617191,-22.22851 -0.46528,-0.43965 -7.422838,-4.4493 -15.460938,-8.91016 l -14.61523425,-8.11133 -7.88476565,7.8086 c -19.5485501,19.35718 -44.5362311,23.65699 -67.4628911,11.60937 -12.514618,-6.57625 -23.502583,-20.89408 -25.429682,-33.13867 l -0.66993,-4.25 70.587894,0 70.58789,0 0,-8.86914 c 0,-14.84022 -3.919487,-32.16275 -9.992187,-44.15039 -11.81345,-23.32009 -34.5858346,-41.20736 -60.677735,-47.66211 -4.697549,-1.16213 -11.748369,-1.7387 -19.013671,-1.73047 z m -3.390625,32.56055 c 18.546314,0.0213 36.175321,10.31046 45.1074215,28.15625 2.18173,4.35896 3.9667969,8.54922 3.9667969,9.31054 0,1.15993 -7.8677864,1.38477 -48.5664064,1.38477 l -48.568358,0 0.64844,-2.25 c 0.35658,-1.2375 2.178221,-5.53893 4.046871,-9.55859 4.36508,-9.38979 12.846073,-18.08774 21.638672,-22.18946 7.07164,-3.2989 14.469309,-4.86186 21.726563,-4.85351 z"
       id="path10764"
       inkscape:connector-curvature="0" />
    <path
       style="fill:#1b5ebb;fill-opacity:1"
       d="m 215.11829,901.31206 c -0.7249,-1.173 -88.1723,-220.05592 -89.1228,-223.0767 l -0.7142,-2.26971 21.7378,0.26971 21.7377,0.2697 24.5195,64.25 c 13.4857,35.3375 24.7744,64.24904 25.0859,64.24787 0.3115,-10e-4 11.5914,-26.10022 25.0664,-57.99787 13.475,-31.89765 24.7897,-57.99669 25.1437,-57.99786 0.354,-10e-4 11.8263,26.09786 25.494,57.99786 13.6676,31.9 25.1147,58 25.4379,58 0.3232,0 10.1814,-25.5375 21.9072,-56.75 11.7258,-31.2125 22.6409,-60.2375 24.2559,-64.5 l 2.9364,-7.75 21.9958,0 c 12.0977,0 21.8458,0.39201 21.6624,0.87113 -7.4972,19.5932 -92.5263,224.80405 -92.9493,224.32562 -0.3388,-0.38321 -11.7856,-28.70925 -25.4374,-62.94675 -13.6518,-34.2375 -25.0746,-62.24001 -25.384,-62.2278 -0.3094,0.0122 -5.626,12.27471 -11.8146,27.25 -33.5484,81.18108 -41.045,98.86531 -41.5583,98.0348 z"
       id="path10760"
       inkscape:connector-curvature="0" />
    <path
       style="fill:#1b5ebb;fill-opacity:1"
       d="m 481.52148,722.54297 c -8.27865,0.0957 -16.75298,1.05144 -23.58398,2.8457 -18.1089,4.75658 -31.58912,12.59806 -43.66992,25.4043 -17.918,18.99406 -26.91041,45.53602 -23.94531,70.67773 4.839,41.03006 33.55716,71.44499 74.60546,79.01368 12.1965,2.24885 31.61718,1.40416 42.63868,-1.85352 4.7512,-1.40435 11.24006,-3.70199 14.41797,-5.10742 12.0304,-5.32042 30.50959,-19.50091 38.40429,-29.46875 l 3.06055,-3.86328 -15.4961,-8.625 -15.49804,-8.625 -7.76367,7.80859 c -22.0291,22.15563 -53.57196,24.51684 -76.62696,5.73633 -8.4584,-6.8901 -16.63672,-21.21403 -16.63672,-29.13867 l 0,-2.3418 70.65039,0 70.64844,0 -0.57226,-11.25 c -1.2321,-24.28319 -7.24947,-40.98996 -21.13477,-58.67774 -10.1614,-12.9439 -29.7155,-25.49372 -47.0918,-30.22265 -6.0459,-1.64538 -14.1276,-2.40822 -22.40625,-2.3125 z m -1.54492,32.63476 c 13.28737,0.26729 26.63393,5.77382 36.39063,16.44922 4.5045,4.92865 9.92289,14.3651 11.55859,20.12891 l 0.63672,2.25 -48.67578,0 -48.67578,0 0.68554,-2.75 c 1.5119,-6.07936 6.92517,-15.5623 12.03907,-21.08594 9.52445,-10.28756 22.75365,-15.25947 36.04101,-14.99219 z"
       id="path10758"
       inkscape:connector-curvature="0" />
    <path
       style="fill:#1b5ebb;fill-opacity:1"
       d="m 587.42773,676.00586 0,110.5 0,110.5 18.5,0 18.5,0 0,-9.79297 0,-9.79297 6.34375,6.1875 c 8.9231,8.7064 24.09695,15.73928 38.15625,17.6836 6.6367,0.91782 20.4249,0.56763 27.5,-0.69727 34.73382,-6.20976 61.97955,-31.42092 69.99805,-64.77148 4.3098,-17.92521 3.6072,-36.69128 -2.0332,-54.2461 -10.738,-33.42001 -41.38905,-56.39033 -78.94727,-59.16406 -20.7567,-1.53291 -45.5506,7.30277 -57.0039,20.31445 l -4.01368,4.56055 0,-35.64063 0,-35.64062 -18.5,0 -18.5,0 z m 89.99415,81.11133 c 3.49967,-9.4e-4 6.99657,0.45123 11.26367,1.35547 18.9377,4.01308 33.45385,18.07347 39.31445,38.08398 2.1269,7.26221 2.39723,21.79029 0.54883,29.44922 -4.8296,20.01218 -20.63202,35.79831 -39.91992,39.87891 l 0,-0.002 c -23.402,4.95095 -47.25933,-6.14562 -57.67383,-26.82617 -16.8507,-33.46094 0.5171,-73.23154 35.1875,-80.57812 4.2784,-0.90649 7.77962,-1.36039 11.2793,-1.36133 z"
       id="path10754"
       inkscape:connector-curvature="0" />
    <path
       style="fill:#1b5ebb;fill-opacity:1"
       d="m -312.57141,786.50506 0,-110.5 18.5,0 18.5,0 0,36.15004 0,36.15004 2.97526,-4.10723 c 11.08868,-15.30748 36.41132,-24.62324 57.86566,-21.28778 15.22123,2.36642 25.84706,7.76552 36.65908,18.62688 11.72207,11.77557 18.19784,25.58036 20.45904,43.61378 0.60098,4.79291 1.04096,30.18586 1.04096,60.07804 l 0,51.77623 -18.5,0 -18.5,0 -0.0178,-46.25 c -0.0192,-49.96213 -0.60904,-60.03286 -4.05452,-69.22474 -2.8117,-7.50105 -10.1733,-15.52424 -16.89874,-18.41745 -11.80946,-5.0803 -27.066,-4.89599 -39.02628,0.47147 -7.73967,3.47336 -15.90433,12.05044 -19.1679,20.13614 -2.3316,5.77667 -2.33519,5.8581 -2.62563,59.53458 l -0.29082,53.75 -18.45915,0 -18.45916,0 0,-110.5 z"
       id="path10750"
       inkscape:connector-curvature="0" />
    <path
       style="fill:#1b5ebb;fill-opacity:1"
       d="m 55.428593,812.00506 0,-85 17.5,0 17.5,0 0,9.15504 0,9.15503 3.844,-5.94749 c 4.3287,-6.6972 9.710697,-11.3664 16.826497,-14.59794 3.7577,-1.70648 6.7159,-2.19345 13.3295,-2.19417 8.3601,-9.1e-4 18.1835,2.29938 19.5988,4.58937 0.4636,0.75011 -10.8431,34.77666 -12.1831,36.6639 -0.1264,0.17805 -1.5537,-0.36085 -3.1717,-1.19757 -10.2597,-5.3055 -20.3552,-3.80338 -28.3739,4.22177 -7.982297,7.98885 -7.870097,6.95028 -7.870097,72.83356 l 0,57.3185 -18.5,0 -18.5,0 0,-85 z"
       id="path10748"
       inkscape:connector-curvature="0" />
    <path
       style="fill:#78b0e7;fill-opacity:1"
       d="m -904.78274,854.74629 c -10.41837,-15.08318 -26.52351,-40.11554 -36.63478,-56.94174 l -5.22834,-8.7005 5.70692,-9.2995 c 12.43119,-20.25673 42.67263,-64.90381 51.0037,-75.29949 9.03823,-11.2781 33.25372,-36.20099 43.74044,-45.01822 l 5.8766,-4.94105 2.69252,3.2252 c 8.33879,9.98852 16.6632,29.88988 19.54812,46.73407 5.54696,32.38718 -9.06508,73.93441 -43.1214,122.60953 -9.24735,13.2168 -29.60647,40.00987 -31.76052,41.79758 -1.00506,0.83412 -3.65734,-2.34366 -11.82326,-14.16588 z"
       id="path10746"
       inkscape:connector-curvature="0" />
    <path
       style="fill:#1b5ebb;fill-opacity:1"
       d="m -688.07141,723.30547 c -29.77926,-2.70534 -63.52817,-17.7349 -104.5,-46.53745 -13.55595,-9.52962 -39.01648,-28.95421 -38.96205,-29.7253 0.12703,-1.79962 78.20061,-53.03766 80.81573,-53.03766 2.96119,0 71.09244,44.84003 85.11055,56.01482 15.90151,12.67618 50.03577,46.68016 50.03577,49.84481 0,1.15272 -12.32547,9.26628 -19.83619,13.05768 -8.77526,4.42974 -20.22369,7.96678 -31.16381,9.62819 -9.17744,1.39372 -12.99333,1.52771 -21.5,0.75491 z"
       id="path10714"
       inkscape:connector-curvature="0" />
  </g>
</svg>
