<?xml version="1.0" encoding="UTF-8" standalone="no"?>
<svg
   xmlns:dc="http://purl.org/dc/elements/1.1/"
   xmlns:cc="http://creativecommons.org/ns#"
   xmlns:rdf="http://www.w3.org/1999/02/22-rdf-syntax-ns#"
   xmlns:svg="http://www.w3.org/2000/svg"
   xmlns="http://www.w3.org/2000/svg"
   xmlns:sodipodi="http://sodipodi.sourceforge.net/DTD/sodipodi-0.dtd"
   xmlns:inkscape="http://www.inkscape.org/namespaces/inkscape"
   version="1.0"
   width="518.9043"
   height="81.828087"
   id="svg12948"
   inkscape:version="0.91 r13725"
   sodipodi:docname="usherbrooke.svg">
  <metadata
     id="metadata13002">
    <rdf:RDF>
      <cc:Work
         rdf:about="">
        <dc:format>image/svg+xml</dc:format>
        <dc:type
           rdf:resource="http://purl.org/dc/dcmitype/StillImage" />
        <dc:title></dc:title>
      </cc:Work>
    </rdf:RDF>
  </metadata>
  <defs
     id="defs13000" />
  <sodipodi:namedview
     pagecolor="#ffffff"
     bordercolor="#666666"
     borderopacity="1"
     objecttolerance="10"
     gridtolerance="10"
     guidetolerance="10"
     inkscape:pageopacity="0"
     inkscape:pageshadow="2"
     inkscape:window-width="1366"
     inkscape:window-height="734"
     id="namedview12998"
     showgrid="false"
     fit-margin-top="0"
     fit-margin-left="0"
     fit-margin-right="0"
     fit-margin-bottom="0"
     inkscape:zoom="0.63"
     inkscape:cx="229.14511"
     inkscape:cy="-55.557653"
     inkscape:window-x="0"
     inkscape:window-y="16"
     inkscape:window-maximized="0"
     inkscape:current-layer="svg12948" />
  <path
     id="s"
     d="m 0,7.41614 0,73.467798 37.72087,0 35.800144,0 0,-73.467798 -40.922072,0 -1.70731,0 L 0,7.41614 Z m 25.182817,12.591432 6.829238,0 1.173774,0 7.576186,0 c 0,-0.0034 2e-6,2.027433 0,2.027433 0,4.440722 3.61395,8.056382 8.056368,8.056382 4.44242,0 8.056368,-3.613954 8.056368,-8.056382 l 0,-2.027433 4.001503,0 0,8.056382 c 0,6.661934 -5.394243,12.057896 -12.057871,12.057896 -6.661923,0 -12.057873,-5.394254 -12.057873,-12.057896 l 0,-5.015231 c -5.275587,0 -9.550264,4.274682 -9.550264,9.550279 0,4.937549 3.732178,8.996688 8.536548,9.496928 l 12.911528,1.067071 0.05335,0 c 6.762053,0.206512 12.164582,5.72649 12.164582,12.538077 0,6.941935 -5.597842,12.59144 -12.538055,12.59143 l -11.470988,0 -4.108212,0 c 0,0.003 -2e-6,-2.027431 0,-2.027431 0,-4.442428 -3.61224,-8.056384 -8.056368,-8.056384 -4.440712,0 -8.056368,3.613956 -8.056366,8.056384 l 0,2.027431 -4.001507,0 0,-8.056379 c 0,-6.663643 5.394244,-12.057899 12.057873,-12.057897 6.663628,0 12.057875,5.39425 12.057875,12.057897 l 0,5.01523 c 5.275585,0 9.550261,-4.274682 9.550261,-9.550281 0,-5.10145 -4.019857,-9.299304 -9.070081,-9.550279 L 24.329162,45.137081 c -6.535583,-0.447316 -11.682694,-5.888097 -11.6844,-12.538079 0,-6.940225 5.596134,-12.59143 12.538055,-12.59143 z"
     inkscape:connector-curvature="0"
     style="fill:#007c59" />
  <g
     id="universite"
     transform="translate(-41.379826,-33.627212)">
    <path
       d="m 158.0659,41.023291 0,0.635121 c -1.28048,0.08707 -2.11194,0.300487 -2.49267,0.641949 -0.38073,0.341463 -0.57024,1.123412 -0.57024,2.345848 l 0,10.699729 c 0,1.753411 0.24073,3.120967 0.71877,4.099257 0.89463,1.785851 2.58999,2.678775 5.08608,2.678775 2.73511,0 4.57388,-0.91512 5.51119,-2.741945 0.52415,-1.022681 0.78366,-2.600236 0.78366,-4.730964 l 0,-8.698758 c 0,-1.816581 -0.21683,-2.957066 -0.65219,-3.419747 -0.43708,-0.464389 -1.26512,-0.75634 -2.48414,-0.875852 l 0,-0.633413 7.7307,0 0,0.635121 c -1.29756,0.141706 -2.14438,0.454145 -2.54048,0.939021 -0.39609,0.48317 -0.59756,1.60146 -0.59756,3.35487 l 0,8.693637 c 0,2.306579 -0.35341,4.10438 -1.06194,5.40023 -1.30609,2.381701 -3.79023,3.571698 -7.44729,3.571698 -3.61608,0 -6.07631,-1.174632 -7.38411,-3.527307 -0.70853,-1.261706 -1.06195,-2.928042 -1.06195,-4.995598 l 0,-10.450462 c 0,-1.212192 -0.1878,-1.989019 -0.56512,-2.330481 -0.3756,-0.341463 -1.19511,-0.559999 -2.46023,-0.657316 l 0,-0.633413 9.48752,0 z"
       id="path12952"
       inkscape:connector-curvature="0" />
    <path
       d="m 172.63266,62.533725 c 1.38293,-0.141708 2.26902,-0.454145 2.6617,-0.937314 0.39097,-0.484878 0.58902,-1.606583 0.58902,-3.36853 l 0,-14.727279 -0.45756,-0.537804 c -0.49,-0.575364 -0.90658,-0.932192 -1.24804,-1.06707 -0.34317,-0.136585 -0.85878,-0.213414 -1.54341,-0.237316 l 0,-0.635121 5.68363,0 12.98922,16.062399 0,-11.148753 c 0,-1.833654 -0.27146,-3.027065 -0.8178,-3.581942 -0.36195,-0.356828 -1.15927,-0.59073 -2.39194,-0.699998 l 0,-0.631706 7.84337,0 0,0.635121 c -1.26853,0.131463 -2.11535,0.442193 -2.54047,0.932192 -0.42171,0.491706 -0.63341,1.613411 -0.63341,3.368528 l 0,17.622883 -0.56683,0 -14.86042,-18.377515 0,13.021675 c 0,1.826825 0.26463,3.020236 0.80073,3.573404 0.34829,0.358538 1.12682,0.60439 2.3373,0.734146 l 0,0.63512 -7.84509,0 0,-0.63512 z"
       id="path12954"
       inkscape:connector-curvature="0" />
    <path
       d="m 197.15987,62.533725 c 1.34536,-0.09732 2.21781,-0.29878 2.61389,-0.60439 0.3978,-0.307316 0.59927,-1.101215 0.59927,-2.383407 l 0,-14.901427 c 0,-1.222436 -0.19975,-2.009507 -0.59927,-2.361213 -0.39608,-0.351707 -1.26853,-0.559999 -2.61389,-0.626584 l 0,-0.633413 9.82387,0 0,0.635121 c -1.34537,0.06659 -2.21779,0.274877 -2.61561,0.626583 -0.39781,0.351707 -0.59756,1.138778 -0.59756,2.361214 l 0,14.901425 c 0,1.282192 0.19805,2.076092 0.59756,2.38341 0.39952,0.307316 1.27024,0.508778 2.61561,0.604388 l 0,0.635119 -9.82387,0 0,-0.636826 z"
       id="path12956"
       inkscape:connector-curvature="0" />
    <path
       d="m 217.16443,41.023291 0,0.635121 c -0.84683,0.01024 -1.4239,0.06659 -1.73294,0.162194 -0.53609,0.174146 -0.80243,0.52756 -0.80243,1.058534 0,0.271463 0.0956,0.652193 0.28513,1.140485 0.18952,0.489999 0.54634,1.314631 1.06877,2.475603 l 5.2312,11.655825 4.75997,-12.628993 c 0.2083,-0.554877 0.36708,-1.02268 0.47635,-1.403411 0.10756,-0.380731 0.1639,-0.689754 0.1639,-0.928778 0,-0.640242 -0.28,-1.0739 -0.83658,-1.30268 -0.32951,-0.129755 -0.87415,-0.206585 -1.6322,-0.228779 l 0,-0.635121 6.84974,0 0,0.635121 c -0.71025,0.09561 -1.2361,0.283413 -1.57414,0.559998 -0.5139,0.414877 -1.02439,1.25146 -1.52634,2.508042 l -7.38582,18.855563 -0.50195,0 -8.2668,-18.416783 c -0.69657,-1.533167 -1.25486,-2.489262 -1.67315,-2.864871 -0.41829,-0.375609 -1.03123,-0.59073 -1.83706,-0.643657 l 0,-0.633413 8.93435,0 z"
       id="path12958"
       inkscape:connector-curvature="0" />
    <path
       d="m 232.2468,62.533725 c 1.23438,-0.12805 2.03341,-0.346585 2.40047,-0.653901 0.36537,-0.307316 0.54976,-1.085851 0.54976,-2.333896 l 0,-14.901427 c 0,-1.179753 -0.17928,-1.951458 -0.54123,-2.313408 -0.36023,-0.361951 -1.16439,-0.587316 -2.409,-0.674389 l 0,-0.633413 17.7765,0 0.15024,4.780476 -0.86049,0 c -0.28,-1.473411 -0.70339,-2.426092 -1.26682,-2.859749 -0.56341,-0.433657 -1.8217,-0.650486 -3.77486,-0.650486 l -4.58753,0 c -0.49512,0 -0.80073,0.07854 -0.91513,0.237316 -0.1161,0.15878 -0.17414,0.45756 -0.17414,0.892925 l 0,7.49681 5.15437,0 c 1.42048,0 2.32535,-0.211707 2.71804,-0.636828 0.39097,-0.423413 0.7034,-1.282191 0.94242,-2.576334 l 0.78537,0 0,7.730712 -0.78537,0 c -0.24926,-1.299265 -0.57023,-2.159751 -0.9595,-2.581456 -0.39097,-0.42 -1.29244,-0.629999 -2.70096,-0.629999 l -5.15437,0 0,8.280465 c 0,0.664145 0.20829,1.056828 0.6283,1.174632 0.41999,0.121219 1.67486,0.179268 3.76802,0.179268 2.2656,0 3.93876,-0.244146 5.01779,-0.734145 1.07901,-0.489998 2.05559,-1.67658 2.93144,-3.559747 l 0.9117,0 -1.48876,5.601694 -18.11798,0 0,-0.63512 0.002,0 z"
       id="path12960"
       inkscape:connector-curvature="0" />
    <path
       d="m 253.05378,62.533725 c 1.28561,-0.117806 2.08634,-0.368779 2.40219,-0.747803 0.31585,-0.379023 0.47462,-1.263412 0.47462,-2.649749 l 0,-14.491672 c 0,-1.169509 -0.17756,-1.934385 -0.53268,-2.298043 -0.35513,-0.36195 -1.13707,-0.592437 -2.34583,-0.689754 l 0,-0.633413 9.26213,0 c 1.92757,0 3.53415,0.245853 4.81974,0.735852 2.43976,0.927071 3.66048,2.632676 3.66048,5.120231 0,1.669752 -0.54122,2.950236 -1.62195,3.84316 -1.08243,0.894633 -2.55243,1.483656 -4.40998,1.767069 l 6.89242,8.46998 c 0.42512,0.515607 0.85194,0.889509 1.27535,1.126826 0.42512,0.235608 0.96976,0.385853 1.63561,0.449023 l 0,0.635119 -5.38997,0 -8.38973,-10.308753 -1.45805,0.07512 0,6.598764 c 0,1.232678 0.18782,2.012922 0.56513,2.34414 0.37561,0.32951 1.1934,0.548047 2.45682,0.655608 l 0,0.635119 -9.2963,0 0,-0.636826 0,0 z m 11.44238,-11.539728 c 1.76024,-0.732437 2.64121,-2.111945 2.64121,-4.136818 0,-1.948044 -0.7939,-3.278041 -2.3817,-3.98999 -0.84683,-0.382438 -1.97024,-0.573657 -3.37192,-0.573657 -0.94757,0 -1.52634,0.06829 -1.73805,0.204877 -0.2117,0.136585 -0.31927,0.45756 -0.31927,0.95951 l 0,8.283881 c 2.41072,-0.08707 4.1334,-0.336339 5.16973,-0.747803 z"
       id="path12962"
       inkscape:connector-curvature="0" />
    <path
       d="m 277.03293,56.484715 c 0.56343,1.50585 1.22585,2.704384 1.9839,3.599016 1.32316,1.560483 2.96389,2.339017 4.929,2.339017 1.06195,0 1.98048,-0.338047 2.75561,-1.015849 0.77511,-0.677804 1.16266,-1.621948 1.16266,-2.832432 0,-1.09268 -0.39097,-2.041947 -1.17462,-2.849506 -0.51219,-0.512194 -1.58779,-1.282191 -3.22853,-2.308287 l -2.85462,-1.785849 c -0.85877,-0.544632 -1.5417,-1.096094 -2.04877,-1.652679 -0.94244,-1.058533 -1.41023,-2.224628 -1.41023,-3.499991 0,-1.690239 0.56,-3.095358 1.67998,-4.21877 1.12001,-1.123411 2.60537,-1.685117 4.4578,-1.685117 0.75976,0 1.67656,0.180975 2.74876,0.541218 1.0722,0.360243 1.68341,0.541218 1.83706,0.541218 0.41318,0 0.70001,-0.0939 0.85709,-0.283414 0.15707,-0.187804 0.27998,-0.455852 0.36876,-0.800729 l 0.67097,0 0.74782,7.133152 -0.78367,0 c -0.54634,-2.152921 -1.42219,-3.657064 -2.62925,-4.51072 -1.20877,-0.853657 -2.40047,-1.278777 -3.58194,-1.278777 -0.91682,0 -1.71755,0.269755 -2.40048,0.810973 -0.68121,0.539511 -1.02437,1.290729 -1.02437,2.251946 0,0.862193 0.25951,1.599752 0.78364,2.21097 0.52243,0.623169 1.33342,1.271948 2.43463,1.949751 l 2.94168,1.81658 c 1.84049,1.137071 3.13975,2.176825 3.89268,3.122675 0.74439,0.956096 1.11317,2.086338 1.11317,3.390723 0,1.749996 -0.65903,3.211456 -1.97707,4.386088 -1.31975,1.174631 -3.00657,1.760239 -5.05876,1.760239 -1.03122,0 -2.10682,-0.196341 -3.23193,-0.589023 -1.12511,-0.390975 -1.76877,-0.589023 -1.93267,-0.589023 -0.39099,0 -0.65391,0.12634 -0.7905,0.375609 -0.13488,0.250976 -0.22536,0.517316 -0.26804,0.802437 l -0.7478,0 -1.00731,-7.133153 0.78535,0 0,0.0017 z"
       id="path12964"
       inkscape:connector-curvature="0" />
    <path
       d="m 294.21017,62.533725 c 1.34367,-0.09732 2.2161,-0.29878 2.6139,-0.60439 0.3978,-0.305609 0.59927,-1.101215 0.59927,-2.383407 l 0,-14.901427 c 0,-1.222436 -0.19977,-2.009507 -0.59927,-2.361213 -0.39951,-0.351707 -1.27023,-0.559999 -2.6139,-0.626584 l 0,-0.633413 9.82216,0 0,0.635121 c -1.34535,0.06659 -2.21609,0.274877 -2.6156,0.626583 -0.39609,0.351707 -0.59755,1.138778 -0.59755,2.361214 l 0,14.901425 c 0,1.282192 0.19975,2.076092 0.59755,2.38341 0.39951,0.307316 1.27025,0.508778 2.6156,0.604388 l 0,0.635119 -9.82216,0 0,-0.636826 z"
       id="path12966"
       inkscape:connector-curvature="0" />
    <path
       d="m 305.45453,41.023291 18.93405,0 0.15024,5.676815 -0.78535,0 c -0.39269,-1.785849 -0.89463,-2.946822 -1.50414,-3.486333 -0.60611,-0.537803 -1.88487,-0.809266 -3.83632,-0.809266 l -1.82855,0 0,17.143127 c 0,1.282192 0.19805,2.076092 0.59758,2.38341 0.39609,0.307316 1.27022,0.508778 2.61389,0.604388 l 0,0.635119 -9.74704,0 0,-0.635119 c 1.43413,-0.107561 2.32707,-0.341463 2.68219,-0.698292 0.3517,-0.356827 0.52926,-1.258289 0.52926,-2.699261 l 0,-16.731665 -1.82853,0 c -1.85584,0 -3.11756,0.268048 -3.79023,0.80073 -0.67097,0.532682 -1.17462,1.698776 -1.51438,3.493162 l -0.82122,0 0.14855,-5.676815 z"
       id="path12968"
       inkscape:connector-curvature="0" />
    <path
       d="m 325.76979,62.533725 c 1.23611,-0.12805 2.03511,-0.346585 2.40219,-0.653901 0.36536,-0.307316 0.54805,-1.085851 0.54805,-2.333896 l 0,-14.901427 c 0,-1.179753 -0.17927,-1.951458 -0.54122,-2.313408 -0.36025,-0.361951 -1.16438,-0.587316 -2.40902,-0.674389 l 0,-0.633413 17.77822,0 0.14855,4.780476 -0.85879,0 c -0.28171,-1.473411 -0.70512,-2.426092 -1.26853,-2.859749 -0.5634,-0.433657 -1.81999,-0.650486 -3.77315,-0.650486 l -4.58926,0 c -0.49341,0 -0.80073,0.07854 -0.9134,0.237316 -0.1161,0.15878 -0.17414,0.45756 -0.17414,0.892925 l 0,7.49681 5.15435,0 c 1.41879,0 2.32536,-0.211707 2.71633,-0.636828 0.39098,-0.423413 0.70512,-1.282191 0.94245,-2.576334 l 0.78536,0 0,7.730712 -0.78536,0 c -0.24928,-1.299265 -0.56854,-2.159751 -0.95951,-2.581456 -0.39097,-0.42 -1.29073,-0.629999 -2.69927,-0.629999 l -5.15435,0 0,8.280465 c 0,0.664145 0.20828,1.056828 0.62827,1.174632 0.42002,0.121219 1.67318,0.179268 3.76633,0.179268 2.2656,0 3.93877,-0.244146 5.01778,-0.734145 1.07733,-0.489998 2.05562,-1.67658 2.93147,-3.559747 l 0.9117,0 -1.48706,5.601694 -18.11969,0 0,-0.63512 0.002,0 z m 14.75287,-27.031883 c -0.17586,0.206585 -0.43195,0.418291 -0.76829,0.63512 l -5.15607,3.242187 -1.35903,0 4.9256,-4.937549 c 0.17756,-0.174145 0.39268,-0.353413 0.65559,-0.536096 0.26124,-0.186097 0.53952,-0.278292 0.83488,-0.278292 0.28342,0 0.54122,0.100732 0.77684,0.302195 0.2356,0.201462 0.35169,0.464389 0.35169,0.790486 0,0.314145 -0.0888,0.575364 -0.26121,0.781949 z"
       id="path12970"
       inkscape:connector-curvature="0" />
  </g>
  <g
     id="de"
     transform="translate(-41.379826,-33.627212)">
    <path
       d="m 354.72578,62.533725 c 1.22412,-0.12805 2.02144,-0.346585 2.39363,-0.653901 0.37221,-0.307316 0.5566,-1.085851 0.5566,-2.333896 l 0,-14.901427 c 0,-1.212192 -0.17929,-1.992434 -0.54124,-2.339018 -0.36023,-0.346584 -1.16438,-0.561706 -2.40899,-0.648779 l 0,-0.633413 9.03166,0 c 3.04242,0 5.61704,0.500243 7.72046,1.504143 3.79704,1.7978 5.69216,5.01267 5.69216,9.642901 0,1.668045 -0.33976,3.252431 -1.02097,4.756575 -0.68293,1.504142 -1.71072,2.772675 -3.08511,3.807306 -0.87413,0.653901 -1.77902,1.149023 -2.71634,1.48707 -1.71243,0.633414 -3.81753,0.949265 -6.31362,0.949265 l -9.30997,0 0,-0.636826 0.002,0 z m 6.7507,-0.822925 c 0.26804,0.175853 0.82121,0.262926 1.66292,0.262926 2.62242,0 4.78046,-0.519024 6.4741,-1.558776 2.59683,-1.598045 3.8978,-4.326332 3.8978,-8.188272 0,-3.445358 -1.07049,-6.038766 -3.20974,-7.778518 -1.83708,-1.487069 -4.26656,-2.231457 -7.29192,-2.231457 -0.75292,0 -1.26342,0.08195 -1.53146,0.24756 -0.26805,0.165609 -0.3995,0.525852 -0.3995,1.082436 l 0,17.081665 c -0.002,0.548047 0.12975,0.908289 0.3978,1.082436 z"
       id="path12973"
       inkscape:connector-curvature="0" />
    <path
       d="m 378.7442,62.533725 c 1.23438,-0.12805 2.03511,-0.346585 2.40049,-0.653901 0.36535,-0.307316 0.54804,-1.085851 0.54804,-2.333896 l 0,-14.901427 c 0,-1.179753 -0.17756,-1.951458 -0.53951,-2.313408 -0.36025,-0.361951 -1.16439,-0.587316 -2.40902,-0.674389 l 0,-0.633413 17.77822,0 0.14852,4.780476 -0.85877,0 c -0.2834,-1.473411 -0.70511,-2.426092 -1.26852,-2.859749 -0.56513,-0.433657 -1.8217,-0.650486 -3.77315,-0.650486 l -4.58926,0 c -0.49512,0 -0.80073,0.07854 -0.91511,0.237316 -0.1161,0.15878 -0.17416,0.45756 -0.17416,0.892925 l 0,7.49681 5.15437,0 c 1.42048,0 2.32537,-0.211707 2.71634,-0.636828 0.39097,-0.423413 0.70512,-1.282191 0.94585,-2.576334 l 0.78194,0 0,7.730712 -0.78194,0 c -0.24928,-1.299265 -0.57024,-2.159751 -0.96123,-2.581456 -0.39097,-0.42 -1.29072,-0.629999 -2.70096,-0.629999 l -5.15437,0 0,8.280465 c 0,0.664145 0.20831,1.056828 0.6283,1.174632 0.41999,0.121219 1.67486,0.179268 3.76802,0.179268 2.2656,0 3.93878,-0.244146 5.01609,-0.734145 1.0773,-0.489998 2.05559,-1.67658 2.93314,-3.559747 l 0.91172,0 -1.48878,5.601694 -18.11626,0 0,-0.63512 z"
       id="path12975"
       inkscape:connector-curvature="0" />
  </g>
  <g
     id="sherbrooke"
     transform="translate(-41.379826,-33.627212)">
    <path
       d="m 152.16373,102.23558 c 1.05341,2.78291 2.2895,5.00242 3.70828,6.6551 2.47218,2.88365 5.54192,4.32462 9.20922,4.32462 1.9856,0 3.70316,-0.62829 5.15266,-1.88487 1.44951,-1.25829 2.1717,-3.01341 2.1717,-5.26365 0,-2.02828 -0.73414,-3.79535 -2.20243,-5.29608 -0.96121,-0.95268 -2.97584,-2.383408 -6.04729,-4.290475 l -5.34046,-3.315604 c -1.60829,-1.014143 -2.88194,-2.03853 -3.82096,-3.074869 -1.73804,-1.966823 -2.60536,-4.140233 -2.60536,-6.515105 0,-3.146577 1.04317,-5.763889 3.13121,-7.857054 2.08804,-2.08975 4.85559,-3.134627 8.30265,-3.134627 1.41877,0 3.12608,0.336342 5.12363,1.007316 1.99585,0.672681 3.13633,1.009023 3.42145,1.009023 0.77,0 1.30268,-0.175856 1.59634,-0.527562 0.29365,-0.349998 0.52243,-0.846826 0.68292,-1.490483 l 1.27024,0 1.34536,13.221429 -1.4939,0 c -1.01755,-3.972915 -2.64974,-6.747298 -4.89315,-8.321441 -2.24682,-1.572436 -4.46632,-2.361213 -6.66021,-2.361213 -1.71073,0 -3.1995,0.501948 -4.46803,1.50585 -1.27024,1.003899 -1.90536,2.398774 -1.90536,4.182915 0,1.603166 0.49,2.972432 1.46999,4.107794 0.97829,1.155852 2.49438,2.362922 4.55169,3.621211 l 5.49583,3.377065 c 3.44023,2.110238 5.85949,4.044623 7.25777,5.801448 1.3761,1.779019 2.06414,3.880722 2.06414,6.306812 0,3.25414 -1.22926,5.97389 -3.68779,8.15584 -2.46023,2.18365 -5.60509,3.27462 -9.43288,3.27462 -1.92243,0 -3.93194,-0.36707 -6.02851,-1.10292 -2.09658,-0.73415 -3.2934,-1.10122 -3.5973,-1.10122 -0.72902,0 -1.22073,0.2339 -1.47512,0.70341 -0.25268,0.46781 -0.42,0.96805 -0.50024,1.50073 l -1.34536,0 -1.8678,-13.22143 1.41707,0 0,0.003 z"
       id="path12978"
       inkscape:connector-curvature="0" />
    <path
       d="m 183.73871,113.43896 c 2.42438,-0.26292 3.94047,-0.71366 4.54486,-1.35219 0.60439,-0.63853 0.90829,-2.30487 0.90829,-4.9973 l 0,-26.890181 c 0,-2.233166 -0.33805,-3.684381 -1.01585,-4.353647 -0.67609,-0.670975 -2.15633,-1.085851 -4.439,-1.248046 l 0,-1.119997 17.25577,0 0,1.119997 c -2.27071,0.163903 -3.74754,0.578779 -4.43046,1.248046 -0.68293,0.669266 -1.02439,2.120481 -1.02439,4.353647 l 0,12.099725 18.74796,0 0,-12.099725 c 0,-2.233166 -0.33293,-3.684381 -1.00048,-4.353647 -0.66756,-0.670975 -2.1512,-1.085851 -4.45265,-1.248046 l 0,-1.119997 17.25406,0 0,1.119997 c -2.28268,0.163903 -3.76121,0.578779 -4.43901,1.248046 -0.67608,0.669266 -1.01585,2.120481 -1.01585,4.353647 l 0,27.637981 c 0,2.26219 0.33804,3.70999 1.01585,4.34511 0.6778,0.63512 2.15633,1.05512 4.43901,1.25658 l 0,1.12 -17.25066,0 0,-1.12 c 2.44487,-0.24244 3.96267,-0.68805 4.55852,-1.33683 0.59755,-0.64707 0.89464,-2.31852 0.89464,-5.01266 l 0,-12.026317 -18.74798,0 0,12.772407 c 0,2.26219 0.33976,3.71511 1.02439,4.36048 0.68122,0.64707 2.15974,1.06024 4.43047,1.24292 l 0,1.12 -17.25749,0 0,-1.12 z"
       id="path12980"
       inkscape:connector-curvature="0" />
    <path
       d="m 229.11558,113.43896 c 2.28096,-0.24244 3.76122,-0.65048 4.43902,-1.22585 0.6778,-0.57536 1.01414,-2.03341 1.01414,-4.37584 l 0,-27.637981 c 0,-2.210969 -0.33293,-3.65877 -0.99878,-4.33828 -0.66757,-0.679513 -2.15293,-1.101218 -4.45267,-1.263413 l 0,-1.119997 33.01596,0 0.29878,8.88827 -1.56903,0 c -0.52756,-2.728286 -1.31633,-4.491939 -2.36802,-5.296085 -1.05341,-0.800729 -3.40097,-1.203655 -7.04266,-1.203655 l -8.51266,0 c -0.9168,0 -1.48363,0.14683 -1.69877,0.438779 -0.21511,0.29366 -0.32097,0.843413 -0.32097,1.647557 l 0,13.824113 9.56094,0 c 2.63779,0 4.31779,-0.392682 5.0451,-1.181461 0.72391,-0.788779 1.3078,-2.386824 1.74998,-4.794134 l 1.49391,0 0,14.416547 -1.49391,0 c -0.46267,-2.419261 -1.05511,-4.019012 -1.78072,-4.80267 -0.72561,-0.783656 -2.39706,-1.17463 -5.01606,-1.17463 l -9.56095,0 0,15.34021 c 0,1.23097 0.38927,1.95657 1.16781,2.17853 0.77852,0.22195 3.10901,0.33292 6.99656,0.33292 4.2085,0 7.31411,-0.45073 9.31679,-1.3539 2.00437,-0.90317 3.82436,-3.09023 5.46509,-6.56461 l 1.7039,0 -2.7795,10.38387 -33.67328,0 0,-1.11829 z"
       id="path12982"
       inkscape:connector-curvature="0" />
    <path
       d="m 267.44982,113.43896 c 2.40389,-0.22195 3.89948,-0.68805 4.49193,-1.39658 0.59072,-0.70853 0.88778,-2.3578 0.88778,-4.95121 l 0,-26.890173 c 0,-2.192189 -0.33121,-3.62804 -0.99365,-4.30755 -0.66244,-0.677804 -2.12389,-1.109754 -4.38436,-1.294142 l 0,-1.119998 17.23871,0 c 3.58705,0 6.57654,0.455852 8.96679,1.364142 4.53973,1.717558 6.81044,4.881208 6.81044,9.489245 0,3.093649 -1.00901,5.466815 -3.02363,7.124616 -2.01464,1.6578 -4.75316,2.748774 -8.21729,3.272919 l 12.79628,15.732891 c 0.78707,0.97316 1.57414,1.67999 2.36293,2.12731 0.78707,0.4456 1.79779,0.72902 3.02876,0.85195 l 0,1.11999 -10.00312,0 -15.55189,-19.121899 -2.67877,0.148536 0,12.234603 c 0,2.30829 0.35,3.77145 1.04659,4.38779 0.69829,0.61805 2.2212,1.02951 4.56705,1.23098 l 0,1.11999 -17.33944,0 0,-1.12341 -0.005,0 z m 21.30039,-21.437018 c 3.27974,-1.35902 4.91875,-3.916574 4.91875,-7.672663 0,-3.612673 -1.47341,-6.078034 -4.41681,-7.397787 -1.57414,-0.710242 -3.66218,-1.065363 -6.26242,-1.065363 -1.7551,0 -2.829,0.128049 -3.22338,0.379024 -0.3927,0.252682 -0.59074,0.845119 -0.59074,1.775605 l 0,15.32484 c 4.46461,-0.155366 7.65559,-0.602682 9.5746,-1.343656 z"
       id="path12984"
       inkscape:connector-curvature="0" />
    <path
       d="m 309.14913,113.43896 c 2.50805,-0.14171 4.1317,-0.53097 4.87096,-1.16609 0.73585,-0.63512 1.10463,-2.11366 1.10463,-4.4356 l 0,-27.637981 c 0,-2.292921 -0.37049,-3.769745 -1.10463,-4.42877 -0.73926,-0.659022 -2.36291,-1.049996 -4.87096,-1.172923 l 0,-1.119997 17.43675,0 c 4.98194,0 8.93436,0.797314 11.8624,2.393653 2.92462,1.596337 4.38779,4.341695 4.38779,8.23949 0,2.929749 -1.0261,5.150964 -3.07657,6.663643 -1.15757,0.867315 -2.89389,1.586093 -5.21073,2.151213 2.86146,0.688048 5.30462,1.835362 7.33462,3.44365 2.02828,1.608289 3.04412,3.860232 3.04412,6.752422 0,4.8556 -2.24852,8.19169 -6.74215,10.01339 -2.36976,0.95097 -5.28755,1.42561 -8.74656,1.42561 l -20.29137,0 0,-1.12171 0.002,0 z m 23.40381,-22.591161 c 2.62243,-1.217314 3.93705,-3.399259 3.93705,-6.54413 0,-3.713405 -1.51438,-6.219739 -4.54143,-7.519004 -1.67488,-0.710242 -4.21878,-1.065365 -7.62828,-1.065365 -1.29241,0 -2.08974,0.110977 -2.39023,0.334635 -0.30389,0.22195 -0.45584,0.829752 -0.45584,1.82341 l 0,14.049475 5.90217,-0.07512 c 2.07608,-0.03927 3.80387,-0.373903 5.17656,-1.003901 z M 334.67,110.46653 c 2.15803,-1.23439 3.23706,-3.60243 3.23706,-7.10413 0,-3.48121 -1.26169,-5.859496 -3.78681,-7.133151 -2.52511,-1.275362 -5.74169,-1.913899 -9.65142,-1.913899 -0.95781,0 -1.56389,0 -1.81828,0 -0.25268,0 -0.64708,-0.0085 -1.17464,-0.03073 l 0,15.48191 c 0,1.0739 0.30732,1.76707 0.91683,2.07951 0.60951,0.31244 2.02828,0.46951 4.24437,0.46951 3.19609,0.003 5.87485,-0.61292 8.03289,-1.84902 z"
       id="path12986"
       inkscape:connector-curvature="0" />
    <path
       d="m 350.227,113.43896 c 2.40218,-0.22195 3.8995,-0.68805 4.49195,-1.39658 0.58902,-0.70853 0.88778,-2.3578 0.88778,-4.95121 l 0,-26.890173 c 0,-2.192189 -0.33291,-3.62804 -0.99535,-4.30755 -0.66244,-0.677804 -2.12219,-1.109754 -4.38266,-1.294142 l 0,-1.119998 17.23698,0 c 3.58878,0 6.57657,0.455852 8.9685,1.364142 4.53975,1.717558 6.81046,4.881208 6.81046,9.489245 0,3.093649 -1.01071,5.466815 -3.02363,7.124616 -2.01634,1.6578 -4.75657,2.748774 -8.219,3.272919 l 12.79628,15.732891 c 0.78708,0.97316 1.57415,1.67999 2.36292,2.12731 0.78707,0.4456 1.7961,0.72902 3.02878,0.85195 l 0,1.11999 -10.00313,0 -15.55189,-19.121899 -2.67876,0.148536 0,12.234603 c 0,2.30829 0.34829,3.77145 1.04828,4.38779 0.69659,0.61805 2.2178,1.02951 4.56535,1.23098 l 0,1.11999 -17.33944,0 0,-1.12341 -0.003,0 z m 21.30041,-21.437018 c 3.27803,-1.35902 4.91704,-3.916574 4.91704,-7.672663 0,-3.612673 -1.4717,-6.078034 -4.4151,-7.397787 -1.57414,-0.710242 -3.66218,-1.065363 -6.26412,-1.065363 -1.75341,0 -2.82731,0.128049 -3.22168,0.379024 -0.3927,0.252682 -0.59075,0.845119 -0.59075,1.775605 l 0,15.32484 c 4.46462,-0.155366 7.65558,-0.602682 9.57461,-1.343656 z"
       id="path12988"
       inkscape:connector-curvature="0" />
    <path
       d="m 397.08412,78.073686 c 3.82096,-3.662187 8.5229,-5.492426 14.10749,-5.492426 5.59998,0 10.31217,1.842189 14.13482,5.521449 4.14534,3.984868 6.21972,9.294611 6.21972,15.930936 0,6.737055 -2.14608,12.096315 -6.43142,16.081175 -3.84315,3.55975 -8.48532,5.34048 -13.92312,5.34048 -5.82362,0 -10.65874,-1.97195 -14.50188,-5.91755 -3.90121,-4.02413 -5.85436,-9.19388 -5.85436,-15.505813 0,-6.632909 2.08121,-11.952896 6.24875,-15.958251 z m 4.63365,30.453334 c 2.57632,3.12609 5.73484,4.68828 9.48922,4.68828 3.66729,0 6.80361,-1.52292 9.40898,-4.56706 2.60534,-3.04585 3.90803,-7.91681 3.90803,-14.614595 0,-6.778032 -1.31635,-11.674605 -3.95243,-14.68972 -2.63609,-3.015114 -5.75703,-4.522671 -9.36288,-4.522671 -3.73217,0 -6.88899,1.563899 -9.47386,4.689989 -2.58315,3.126089 -3.87729,7.96632 -3.87729,14.522402 -0.002,6.535595 1.28558,11.367285 3.86023,14.493375 z"
       id="path12990"
       inkscape:connector-curvature="0" />
    <path
       d="m 441.96416,78.073686 c 3.81926,-3.662187 8.52289,-5.492426 14.10581,-5.492426 5.60167,0 10.31384,1.842189 14.1348,5.521449 4.14706,3.984868 6.21974,9.294611 6.21974,15.930936 0,6.737055 -2.1444,12.096315 -6.43145,16.081175 -3.84314,3.55975 -8.48362,5.34048 -13.92309,5.34048 -5.82364,0 -10.65874,-1.97195 -14.50018,-5.91755 -3.90121,-4.02413 -5.85439,-9.19388 -5.85439,-15.505813 0,-6.632909 2.08121,-11.952896 6.24876,-15.958251 z m 4.63364,30.453334 c 2.57463,3.12609 5.73486,4.68828 9.48753,4.68828 3.66901,0 6.80533,-1.52292 9.41068,-4.56706 2.60366,-3.04585 3.90803,-7.91681 3.90803,-14.614595 0,-6.778032 -1.31803,-11.674605 -3.95241,-14.68972 -2.63609,-3.015114 -5.75705,-4.522671 -9.3646,-4.522671 -3.73047,0 -6.88729,1.563899 -9.47216,4.689989 -2.58486,3.126089 -3.8773,7.96632 -3.8773,14.522402 -0.002,6.535595 1.28561,11.367285 3.86023,14.493375 z"
       id="path12992"
       inkscape:connector-curvature="0" />
    <path
       d="m 479.32694,113.43896 c 2.52681,-0.20146 4.09412,-0.65219 4.70191,-1.35048 0.60781,-0.69829 0.91,-2.36122 0.91,-4.99219 l 0,-26.915781 c 0,-2.245115 -0.33804,-3.696333 -1.01584,-4.353647 -0.6778,-0.657316 -2.21097,-1.067071 -4.59607,-1.229266 l 0,-1.119997 17.72699,0 0,1.119997 c -2.42781,0.121219 -3.99512,0.524145 -4.70364,1.208778 -0.70682,0.68634 -1.06195,2.137555 -1.06195,4.353647 l 0,12.697285 c 3.83632,-3.243894 6.97265,-6.004619 9.41068,-8.280466 4.3622,-4.131697 6.54583,-6.783155 6.54583,-7.952664 0,-0.826339 -0.37219,-1.369264 -1.11316,-1.632191 -0.74097,-0.261218 -1.79097,-0.39268 -3.14998,-0.39268 l 0,-1.119998 16.31845,0 0,1.119998 c -1.99243,0.196339 -3.56315,0.580485 -4.71217,1.14902 -1.14902,0.568535 -2.73852,1.816581 -4.77363,3.74243 l -12.14239,11.213631 14.83311,15.975324 c 2.69412,2.86487 4.52607,4.65243 5.50094,5.36267 0.97146,0.71195 2.40049,1.17805 4.28365,1.39658 l 0,1.12 -19.02626,0 0,-1.12 c 1.72096,-0.0615 2.88364,-0.19805 3.49315,-0.40975 0.60611,-0.21171 0.9117,-0.63342 0.9117,-1.26171 0,-0.34317 -0.19805,-0.87073 -0.59242,-1.58097 -0.3961,-0.71024 -1.02097,-1.52975 -1.87123,-2.46194 l -11.9853,-12.910704 -1.93097,1.782435 0,11.228999 c 0,2.30828 0.35,3.76974 1.04659,4.38608 0.69829,0.61634 2.2212,1.0278 4.56705,1.22927 l 0,1.12 -17.57504,0 0,-1.12171 z"
       id="path12994"
       inkscape:connector-curvature="0" />
    <path
       d="m 523.83307,113.43896 c 2.28098,-0.24244 3.75951,-0.65048 4.43731,-1.22585 0.6778,-0.57536 1.01584,-2.03341 1.01584,-4.37584 l 0,-27.637981 c 0,-2.210969 -0.33293,-3.65877 -1.00048,-4.33828 -0.66757,-0.679513 -2.1512,-1.101218 -4.45095,-1.263413 l 0,-1.119997 33.01424,0 0.29878,8.88827 -1.56731,0 c -0.52755,-2.728286 -1.31635,-4.491939 -2.36974,-5.296085 -1.05171,-0.800729 -3.39926,-1.203655 -7.04436,-1.203655 l -8.50923,0 c -0.92025,0 -1.48536,0.14683 -1.7005,0.438779 -0.21341,0.29366 -0.32097,0.843413 -0.32097,1.647557 l 0,13.824113 9.56094,0 c 2.63779,0 4.3195,-0.392682 5.0451,-1.181461 0.72561,-0.788779 1.3095,-2.386824 1.7517,-4.794134 l 1.4939,0 0,14.416547 -1.4939,0 c -0.46268,-2.419261 -1.05683,-4.019012 -1.78244,-4.80267 -0.72561,-0.783656 -2.39706,-1.17463 -5.01606,-1.17463 l -9.56094,0 0,15.34021 c 0,1.23097 0.38926,1.95657 1.1678,2.17853 0.78024,0.22195 3.11071,0.33292 6.99656,0.33292 4.2085,0 7.31411,-0.45073 9.31679,-1.3539 2.00437,-0.90317 3.82436,-3.09023 5.46509,-6.56461 l 1.7039,0 -2.7795,10.38387 -33.67157,0 0,-1.11829 0,0 z"
       id="path12996"
       inkscape:connector-curvature="0" />
  </g>
</svg>
