<?xml version="1.0" encoding="UTF-8" standalone="no"?>
<!-- Generator: Adobe Illustrator 16.0.0, SVG Export Plug-In . SVG Version: 6.00 Build 0)  -->

<svg
   xmlns:dc="http://purl.org/dc/elements/1.1/"
   xmlns:cc="http://creativecommons.org/ns#"
   xmlns:rdf="http://www.w3.org/1999/02/22-rdf-syntax-ns#"
   xmlns:svg="http://www.w3.org/2000/svg"
   xmlns="http://www.w3.org/2000/svg"
   xmlns:sodipodi="http://sodipodi.sourceforge.net/DTD/sodipodi-0.dtd"
   xmlns:inkscape="http://www.inkscape.org/namespaces/inkscape"
   version="1.1"
   x="0px"
   y="0px"
   width="377.17801"
   height="81.345001"
   viewBox="0 0 377.17801 81.345001"
   enable-background="new 0 0 450 140"
   xml:space="preserve"
   id="svg11630"
   inkscape:version="0.91 r13725"
   sodipodi:docname="desjardins.svg"><metadata
     id="metadata11662"><rdf:RDF><cc:Work
         rdf:about=""><dc:format>image/svg+xml</dc:format><dc:type
           rdf:resource="http://purl.org/dc/dcmitype/StillImage" /><dc:title></dc:title></cc:Work></rdf:RDF></metadata><defs
     id="defs11660" /><sodipodi:namedview
     pagecolor="#ffffff"
     bordercolor="#666666"
     borderopacity="1"
     objecttolerance="10"
     gridtolerance="10"
     guidetolerance="10"
     inkscape:pageopacity="0"
     inkscape:pageshadow="2"
     inkscape:window-width="1366"
     inkscape:window-height="734"
     id="namedview11658"
     showgrid="false"
     fit-margin-top="0"
     fit-margin-left="0"
     fit-margin-right="0"
     fit-margin-bottom="0"
     inkscape:zoom="0.84"
     inkscape:cx="-170.34057"
     inkscape:cy="40.745"
     inkscape:window-x="0"
     inkscape:window-y="16"
     inkscape:window-maximized="0"
     inkscape:current-layer="svg11630" /><g
     id="logo_x5F_desjardins_x5F_vert"
     transform="translate(-36.412,-29.4)" /><g
     id="Calque_2"
     transform="translate(-36.412,-29.4)"><g
       id="g11634"><path
         d="m 146.3,47.482 -15.599,-0.003 0,45.186 15.783,0 c 14.132,0 23.264,-8.84 23.264,-22.515 0.003,-13.56 -9.421,-22.668 -23.448,-22.668 z m -0.438,37.51 -5.948,0 0,-29.782 6.359,0 c 8.308,0 14.341,6.288 14.341,14.953 0,8.732 -6.066,14.829 -14.752,14.829 z"
         id="path11636"
         inkscape:connector-curvature="0"
         style="fill:#00814d" /><path
         d="m 36.412,49.739 0,40.672 35.224,20.334 35.223,-20.334 0,-40.672 L 71.638,29.4 36.412,49.739 Z m 60.911,5.504 0,29.661 -25.685,14.829 -25.685,-14.829 0,-29.661 25.685,-14.829 25.685,14.829 z"
         id="path11638"
         inkscape:connector-curvature="0"
         style="fill:#00814d" /><path
         d="m 350.035,51.524 c 0,2.596 -2.114,4.711 -4.712,4.711 -2.6,0 -4.714,-2.115 -4.714,-4.711 0,-2.599 2.114,-4.714 4.714,-4.714 2.598,0 4.712,2.115 4.712,4.714 z m -0.675,10.174 -8.076,0 0,30.967 8.076,0 0,-30.967 z"
         id="path11640"
         inkscape:connector-curvature="0"
         style="fill:#00814d" /><path
         d="m 221.721,73.514 c -3.458,-1.337 -4.534,-1.983 -4.534,-3.444 0,-1.386 1.113,-2.215 2.978,-2.215 3.076,0 5.378,1.667 7.407,3.493 l 4.687,-5.008 c -3.013,-3.243 -7.488,-5.177 -11.998,-5.177 -6.539,0 -11.111,3.797 -11.111,9.234 0,6.19 4.78,8.603 9.46,10.149 0.562,0.183 1.078,0.351 1.559,0.497 2.661,0.84 4.127,1.304 4.127,2.913 0,0.899 -0.491,2.409 -3.775,2.409 -3.043,0 -6.045,-1.479 -7.699,-3.776 l -4.752,5.054 c 3.294,3.734 7.333,5.551 12.346,5.551 7.392,0 11.984,-3.586 11.984,-9.355 0.002,-5.792 -4.032,-7.765 -10.679,-10.325 z"
         id="path11642"
         inkscape:connector-curvature="0"
         style="fill:#00814d" /><path
         d="m 402.911,73.514 c -3.457,-1.337 -4.533,-1.983 -4.533,-3.444 0,-1.386 1.112,-2.215 2.978,-2.215 3.075,0 5.378,1.667 7.408,3.493 l 4.683,-5.008 c -3.011,-3.243 -7.485,-5.177 -11.998,-5.177 -6.538,0 -11.107,3.797 -11.107,9.234 0,6.19 4.778,8.603 9.459,10.149 0.562,0.183 1.076,0.351 1.556,0.497 2.666,0.84 4.129,1.304 4.129,2.913 0,0.899 -0.492,2.409 -3.773,2.409 -3.045,0 -6.046,-1.479 -7.699,-3.776 l -4.753,5.054 c 3.292,3.734 7.331,5.551 12.347,5.551 7.393,0 11.982,-3.586 11.982,-9.355 0.001,-5.792 -4.033,-7.765 -10.679,-10.325 z"
         id="path11644"
         inkscape:connector-curvature="0"
         style="fill:#00814d" /><path
         d="m 246.809,51.524 c 0,2.596 -2.116,4.711 -4.714,4.711 -2.598,0 -4.714,-2.115 -4.714,-4.711 0,-2.599 2.113,-4.714 4.714,-4.714 2.601,0 4.714,2.115 4.714,4.714 z m -9.589,53.165 c 5.32,0 8.922,-3.658 8.922,-10.942 l 0,-32.049 -8.104,0 0,31.714 c 0,2.811 -1.15,4.204 -3.084,4.204 -0.937,0 -1.843,-0.276 -2.692,-0.758 L 230.9,103.6 c 1.997,0.788 3.629,1.089 6.32,1.089 l 0,0 z"
         id="path11646"
         inkscape:connector-curvature="0"
         style="fill:#00814d" /><path
         d="m 272.388,63.419 c -2.167,-1.432 -5.183,-2.254 -8.271,-2.254 -5.094,0 -9.274,1.834 -11.786,5.167 0.549,0.597 4.034,4.292 4.711,5 1.269,-1.772 2.479,-2.692 4.271,-3.251 0.668,-0.208 1.393,-0.314 2.16,-0.314 0.984,0 1.971,0.178 2.703,0.492 1.916,0.814 3.013,2.403 3.013,4.361 l 0,2.022 c -0.224,-0.114 -2.751,-1.19 -6.848,-1.19 -6.52,0 -11.435,4.307 -11.435,10.015 0,5.644 4.227,9.734 10.05,9.734 3.635,0 5.89,-1.6 7.885,-3.251 l 0.348,0 0,2.72 7.669,0 0,-20.248 c 10e-4,-4.014 -1.503,-7.043 -4.47,-9.003 z m -3.197,19.139 c 0,1.574 -3.292,4.077 -7.193,4.077 -2.408,0 -3.992,-1.586 -3.992,-3.567 0,-1.293 0.717,-3.686 4.9,-3.686 3.091,0 6.282,0.966 6.282,0.966 l 0,2.21 0.003,0 z"
         id="path11648"
         inkscape:connector-curvature="0"
         style="fill:#00814d" /><path
         d="m 291.886,65.323 -0.201,0 0,-3.627 -8.23,0 0,30.966 8.23,0 -0.013,-13.939 c 0,-5.588 2.771,-9.392 9.75,-9.392 l 0,-8.166 c -4.16,0.067 -7.531,1.329 -9.536,4.158 z"
         id="path11650"
         inkscape:connector-curvature="0"
         style="fill:#00814d" /><path
         d="m 326.604,89.947 0.379,0 0,2.715 7.685,0 0,-45.183 -8.091,0 0,16.767 -0.311,0 c -1.604,-1.922 -5.408,-3.081 -7.982,-3.081 -9.819,0 -15.119,8.25 -15.119,16.015 0,5.914 2.554,9.646 4.69,11.737 2.779,2.716 6.58,4.276 10.429,4.276 1.841,0.002 4.771,-0.548 8.32,-3.246 z m -7.856,-4.058 c -4.442,0 -7.918,-3.826 -7.918,-8.709 0,-4.902 3.46,-8.74 7.878,-8.74 4.905,0 7.948,4.539 7.948,8.74 0,4.8 -3.546,8.709 -7.908,8.709 z"
         id="path11652"
         inkscape:connector-curvature="0"
         style="fill:#00814d" /><path
         d="m 364.361,64.23 -0.313,0 0,-2.535 -8.089,0 0,30.966 8.089,0 0,-16.113 c 0,-7.119 4.422,-8.181 7.056,-8.181 4.665,0 6.323,3.871 6.323,7.496 l 0,16.799 8.092,0 0,-16.704 c 0,-9.272 -4.956,-14.79 -13.261,-14.79 -5.732,0 -7.855,2.972 -7.897,3.062 z"
         id="path11654"
         inkscape:connector-curvature="0"
         style="fill:#00814d" /><path
         d="m 204.734,76.842 c -0.053,-9.26 -6.288,-15.674 -15.201,-15.674 -8.898,0 -15.356,6.72 -15.356,15.985 0,9.448 6.557,16.045 15.95,16.045 5.497,0 10.271,-2.024 13.115,-5.551 -0.581,-0.639 -4.178,-4.425 -4.819,-5.071 -1.487,1.699 -4.233,3.469 -7.657,3.469 -4.099,0 -7.195,-2.313 -8.195,-6.287 l 21.979,0 c 0.124,-0.588 0.184,-1.924 0.184,-2.916 z m -22.137,-2.831 c 0.921,-3.711 3.608,-5.752 7.217,-5.752 3.526,0 6.026,1.979 6.934,5.752 l -14.151,0 z"
         id="path11656"
         inkscape:connector-curvature="0"
         style="fill:#00814d" /></g></g></svg>