<svg width="524" height="76" viewBox="0 0 524 76" fill="none" xmlns="http://www.w3.org/2000/svg">
<path fill-rule="evenodd" clip-rule="evenodd" d="M171.144 32.186C171.144 30.1948 170.998 28.4405 170.683 26.9059C170.376 25.3747 169.841 24.1044 169.099 23.0882C168.346 22.0618 167.277 21.2636 166.027 20.7949C164.728 20.2799 163.091 20.0121 161.106 20.0121C159.124 20.0121 157.469 20.2799 156.158 20.7949C154.824 21.3099 153.779 22.0651 153.022 23.0882C152.243 24.1044 151.715 25.3747 151.386 26.9059C151.067 28.6505 150.913 30.4171 150.925 32.186C150.912 33.9606 151.066 35.733 151.386 37.4833C151.715 39.0248 152.243 40.3019 153.022 41.3319C153.779 42.3618 154.824 43.1377 156.158 43.6527C157.469 44.1676 159.124 44.4286 161.106 44.4286C163.091 44.4286 164.728 44.1676 166.027 43.6527C167.335 43.1377 168.354 42.3618 169.099 41.3319C169.841 40.3019 170.376 39.0248 170.683 37.4833C170.998 35.9522 171.144 34.1841 171.144 32.186ZM185.812 32.186C185.812 35.5402 185.404 38.6163 184.595 41.4177C183.775 44.1985 182.407 46.6052 180.493 48.5929C178.579 50.5876 176.032 52.1497 172.86 53.2689C169.694 54.3846 165.773 54.9511 161.106 54.9511C156.394 54.9511 152.464 54.3846 149.322 53.2689C146.16 52.1497 143.621 50.5876 141.695 48.5929C139.744 46.6052 138.377 44.1985 137.56 41.4177C136.744 38.6163 136.335 35.5402 136.335 32.186C136.335 28.8456 136.744 25.7867 137.56 23.0024C138.377 20.2319 139.744 17.839 141.695 15.8271C143.621 13.8153 146.16 12.2498 149.322 11.1478C152.464 10.0458 156.394 9.48615 161.106 9.48615C165.773 9.48615 169.694 10.0458 172.86 11.1478C176.032 12.2498 178.579 13.8153 180.493 15.8271C182.442 17.8995 183.845 20.3543 184.595 23.0024C185.404 25.7867 185.812 28.8456 185.812 32.186ZM71.4864 21.8866C70.9208 19.195 69.9282 16.9154 68.5198 15.0753C67.1039 13.2557 65.1674 11.8516 62.699 10.9006C60.2306 9.96336 57.1329 9.48615 53.3835 9.48615C50.7428 9.48615 47.6002 9.73334 43.9856 10.2174C40.3335 10.6912 36.9437 11.2096 33.7599 11.7417C31.063 12.188 28.3511 12.7133 25.6467 13.2729V53.9315H40.0451V21.8214C41.3261 21.5502 42.5997 21.2893 43.8769 21.0901C44.9407 20.9047 46.0682 20.74 47.278 20.582C48.4729 20.4104 49.5367 20.3348 50.4132 20.3348C51.9976 20.3348 53.2899 20.5992 54.2825 21.1176C55.2713 21.6257 56.0279 22.3535 56.5935 23.3045C57.1367 24.2417 57.5112 25.4021 57.6873 26.7479C57.8633 28.1109 57.9495 29.594 57.9495 31.2385V53.9315H72.3554V31.2385C72.3554 27.7058 72.0557 24.5919 71.4864 21.8866ZM128.32 21.8866C127.758 19.195 126.773 16.9154 125.361 15.0753C123.948 13.2557 122.016 11.8516 119.54 10.9006C117.075 9.96336 113.97 9.48615 110.243 9.48615C107.587 9.48615 104.452 9.73334 100.823 10.2174C97.4106 10.6624 94.0089 11.1706 90.6193 11.7417C87.8962 12.188 85.1956 12.7133 82.4912 13.2729V53.9315H96.8859V21.8214C98.1631 21.5502 99.4404 21.2893 100.718 21.0901C101.774 20.9047 102.901 20.74 104.115 20.582C105.329 20.4104 106.374 20.3348 107.261 20.3348C108.842 20.3348 110.134 20.5992 111.119 21.1176C112.112 21.6257 112.872 22.3535 113.438 23.3045C113.981 24.2417 114.352 25.4021 114.532 26.7479C114.7 28.1109 114.794 29.594 114.794 31.2385V53.9315H129.177V31.2385C129.177 27.7058 128.904 24.5919 128.32 21.8866ZM7.96332 11.7417C5.31138 12.1777 2.65194 12.6961 0 13.2557V53.9315H14.4022V10.7324C12.1547 11.0723 10.0122 11.395 7.96332 11.7417ZM214.366 40.3088C208.413 31.1398 204.002 21.2016 201.278 10.8285C199.252 11.1238 197.308 11.4327 195.442 11.7417C192.779 12.1777 190.108 12.703 187.43 13.2626C190.79 27.9354 197.49 41.7935 207.091 53.9315H221.617C231.232 41.7989 237.938 27.9392 241.293 13.2626C238.639 12.6968 235.97 12.1897 233.289 11.7417C231.423 11.4327 229.476 11.1238 227.46 10.8285C224.728 21.2 220.314 31.1372 214.366 40.3088ZM506.008 44.4286C504.023 44.4286 502.36 44.1676 501.049 43.6527C499.776 43.176 498.683 42.3695 497.903 41.3319C497.138 40.3019 496.599 39.0248 496.288 37.4833C495.956 35.7344 495.801 33.9611 495.824 32.186C495.824 30.1948 495.974 28.4405 496.288 26.9059C496.599 25.3747 497.138 24.0976 497.903 23.0573C498.682 22.0239 499.715 21.2549 501.049 20.74C502.36 20.225 504.023 19.9572 506.008 19.9572C511.384 19.9643 516.758 20.1555 522.118 20.5305L523.253 11.2645C521.164 10.9395 519.072 10.6351 516.976 10.3513C515.211 10.1355 513.445 9.93867 511.675 9.7608C510.229 9.59185 508.773 9.4933 507.315 9.46555C506.874 9.44839 506.473 9.44839 506.076 9.44839C506.061 9.44839 505.51 9.44839 505.267 9.45526C505.034 9.45526 504.802 9.45526 504.559 9.46555C500.487 9.57198 497.03 10.1178 494.213 11.1238C491.063 12.243 488.516 13.8016 486.587 15.8065C484.643 17.7875 483.276 20.1804 482.448 22.9818C481.635 25.7798 481.234 28.8456 481.234 32.186C481.234 35.5402 481.635 38.6163 482.448 41.4177C483.276 44.1985 484.643 46.6052 486.587 48.5929C488.516 50.5876 491.063 52.1497 494.213 53.2689C497.03 54.2713 500.487 54.8309 504.559 54.9236C504.802 54.9374 505.034 54.9374 505.267 54.9442L506.076 54.9511C506.473 54.9511 506.874 54.9442 507.315 54.9236C508.847 54.8927 510.312 54.7863 511.675 54.6318C513.537 54.4396 515.305 54.2404 516.976 54.0379C519.071 53.7519 521.164 53.4486 523.253 53.1281L522.118 43.8621C517.099 44.2123 511.631 44.4251 506.008 44.4286ZM412.681 43.7866C411.791 43.8214 410.901 43.8397 410.01 43.8415H407.467C406.317 43.8415 405.455 43.7145 404.849 43.4604C404.286 43.2292 403.827 42.8297 403.545 42.3275C403.228 41.7057 403.06 41.0292 403.051 40.3431C402.997 39.3907 402.973 38.437 402.979 37.4833V21.818C404.242 21.5433 405.467 21.2893 406.74 21.0901C407.804 20.9047 408.931 20.74 410.134 20.582C411.355 20.4104 412.396 20.3348 413.284 20.3348L415.348 20.2525V9.51019C412.891 9.56168 410.081 9.78483 406.841 10.2174C405.519 10.3822 404.242 10.5813 402.979 10.753V0.570312C400.713 0.893027 398.545 1.22261 396.492 1.57279C393.84 2.02596 391.162 2.54093 388.51 3.09366V38.4377C388.51 41.5756 388.765 44.1985 389.304 46.3271C389.817 48.4385 390.739 50.1482 392.005 51.4253C393.289 52.7093 394.994 53.6156 397.166 54.1546C399.324 54.6902 402.017 54.9511 405.291 54.9511C406.249 54.9511 407.369 54.8824 408.62 54.7657C409.883 54.6387 410.962 54.5494 412.111 54.3743C413.419 54.1958 415.509 53.9212 416.913 53.6705L415.662 43.6836C414.651 43.7145 413.647 43.7591 412.681 43.7866ZM451.913 20.2525V9.51019C449.471 9.56168 446.643 9.78483 443.414 10.2174C440 10.6635 436.596 11.1717 433.203 11.7417C430.499 12.188 427.78 12.7133 425.094 13.2729V53.9315H439.481V21.8214C440.766 21.5502 442.043 21.2893 443.313 21.0901C444.377 20.9047 445.508 20.74 446.71 20.582C447.751 20.4266 448.803 20.344 449.857 20.3348L451.913 20.2525ZM467.158 11.7417C464.49 12.1864 461.835 12.6912 459.195 13.2557V53.9315H473.589V10.7324C471.349 11.0723 469.211 11.395 467.158 11.7417ZM347.813 30.442C347.88 29.0104 348.027 28.2997 348.027 28.2997C348.09 27.8156 348.161 27.3487 348.251 26.9059C348.558 25.3747 349.094 24.0976 349.866 23.0573C350.637 22.0239 351.682 21.2549 353.008 20.74C354.237 20.2525 355.78 20.0121 357.589 19.9709C360.661 20.0396 362.882 20.6679 364.208 21.8557C365.107 22.6694 365.714 23.8469 366.032 25.409C359.758 26.6106 353.66 28.31 347.813 30.442ZM380.142 24.3619L380.127 24.355C379.397 20.1186 377.591 16.785 374.748 14.4127C370.901 11.2096 365.152 9.45526 357.222 9.45526C356.99 9.45526 356.743 9.45526 356.529 9.46555C352.446 9.57198 348.993 10.1178 346.165 11.1238C343.022 12.243 340.486 13.8016 338.542 15.8065C336.602 17.7875 335.235 20.1804 334.411 22.9818C333.575 25.9891 333.164 29.0826 333.19 32.186C333.19 33.779 333.284 35.3239 333.463 36.7864C330.639 38.273 327.893 39.89 325.215 41.5928V31.2385C325.215 27.7058 324.938 24.5919 324.365 21.8866C323.792 19.195 322.803 16.9154 321.391 15.0753C319.923 13.2064 317.905 11.7586 315.574 10.9006C313.109 9.96336 310 9.48615 306.27 9.48615C303.629 9.48615 300.479 9.73334 296.86 10.2174C293.216 10.6912 289.819 11.2096 286.635 11.7417C286.249 11.7966 285.852 11.8859 285.459 11.9546C284.767 11.5499 284.04 11.1974 283.286 10.9006C280.81 9.96336 277.716 9.48615 273.974 9.48615C271.315 9.48615 268.169 9.73334 264.554 10.2174C260.921 10.6912 257.52 11.2096 254.343 11.7417C251.635 12.188 248.927 12.7133 246.219 13.2729V53.9315H260.613V21.8214C261.885 21.5438 263.166 21.3 264.453 21.0901C265.513 20.9047 266.64 20.74 267.85 20.582C269.056 20.4104 270.101 20.3348 270.985 20.3348C272.577 20.3348 273.862 20.5992 274.851 21.1176C275.84 21.6257 276.619 22.3535 277.166 23.3045C277.72 24.2417 278.076 25.4021 278.259 26.7479C278.435 28.1109 278.514 29.594 278.514 31.2385V53.9315H292.924V21.8214C294.201 21.5502 295.467 21.2893 296.748 21.0901C297.804 20.9047 298.936 20.74 300.16 20.582C301.367 20.4104 302.412 20.3348 303.288 20.3348C304.88 20.3348 306.157 20.5992 307.157 21.1176C308.139 21.6257 308.922 22.3535 309.461 23.3045C310.019 24.2417 310.386 25.4021 310.547 26.7479C310.738 28.1109 310.828 29.594 310.828 31.2385V52.5204L309.959 53.2757C303.401 59.2966 297.68 66.0364 292.924 73.3424V75.5877C296.081 71.7436 299.525 68.1049 303.232 64.6978C322.983 46.6052 350.049 35.2484 380.033 34.6647L380.172 33.4769C380.595 30.0987 380.655 27.6646 380.142 24.3619Z" fill="#CF232A"/>
<path fill-rule="evenodd" clip-rule="evenodd" d="M368.253 44.1973C358.099 44.6298 348.289 46.3052 339.018 49.0551C340.895 50.8369 343.277 52.2411 346.165 53.2676C348.993 54.2701 352.447 54.8297 356.529 54.9224C356.743 54.9361 356.99 54.9361 357.222 54.943L358.013 54.9498C360.05 54.9209 362.085 54.8052 364.111 54.6031C366.489 54.3564 368.864 54.0806 371.235 53.7757C374.037 53.3673 376.828 52.8991 379.607 52.3715L378.524 43.7578L368.253 44.1973Z" fill="#CF232A"/>
</svg>
