<?xml version="1.0" encoding="UTF-8" standalone="no"?>
<!-- Created with Inkscape (http://www.inkscape.org/) -->

<svg
   xmlns:dc="http://purl.org/dc/elements/1.1/"
   xmlns:cc="http://creativecommons.org/ns#"
   xmlns:rdf="http://www.w3.org/1999/02/22-rdf-syntax-ns#"
   xmlns:svg="http://www.w3.org/2000/svg"
   xmlns="http://www.w3.org/2000/svg"
   xmlns:sodipodi="http://sodipodi.sourceforge.net/DTD/sodipodi-0.dtd"
   xmlns:inkscape="http://www.inkscape.org/namespaces/inkscape"
   width="141.15607mm"
   height="38.944874mm"
   viewBox="0 0 500.1593 137.99365"
   id="svg12204"
   version="1.1"
   inkscape:version="0.91 r13725"
   sodipodi:docname="sherbrooke-innopole.svg">
  <defs
     id="defs12206" />
  <sodipodi:namedview
     id="base"
     pagecolor="#ffffff"
     bordercolor="#666666"
     borderopacity="1.0"
     inkscape:pageopacity="0.0"
     inkscape:pageshadow="2"
     inkscape:zoom="0.49497475"
     inkscape:cx="366.00838"
     inkscape:cy="265.9038"
     inkscape:document-units="px"
     inkscape:current-layer="layer1"
     showgrid="false"
     fit-margin-top="0"
     fit-margin-left="0"
     fit-margin-right="0"
     fit-margin-bottom="0"
     inkscape:window-width="1366"
     inkscape:window-height="734"
     inkscape:window-x="0"
     inkscape:window-y="16"
     inkscape:window-maximized="0" />
  <metadata
     id="metadata12209">
    <rdf:RDF>
      <cc:Work
         rdf:about="">
        <dc:format>image/svg+xml</dc:format>
        <dc:type
           rdf:resource="http://purl.org/dc/dcmitype/StillImage" />
        <dc:title></dc:title>
      </cc:Work>
    </rdf:RDF>
  </metadata>
  <g
     inkscape:label="Calque 1"
     inkscape:groupmode="layer"
     id="layer1"
     transform="translate(-54.575032,-530.70091)">
    <path
       style="fill:#00b83b;fill-opacity:1"
       d="m 95.161579,667.13897 c -0.776984,-0.85855 -1.41269,-2.39502 -1.41269,-3.41438 0,-2.23892 2.835572,-5.26775 4.931633,-5.26775 2.679318,0 5.311498,2.49649 5.311498,5.03768 0,4.57856 -5.813667,6.97795 -8.830441,3.64445 z"
       id="path12813"
       inkscape:connector-curvature="0" />
    <path
       style="fill:#000000"
       d="m 238.79255,619.24508 c -3.89763,-0.13448 -7.88927,0.75424 -10.95168,2.78085 l -3.49274,2.31071 0,-2.14566 c 0,-1.72011 -0.42358,-2.14566 -2.13398,-2.14566 l -2.13399,0 0,20.05947 0,20.05947 2.13399,0 c 2.10752,0 2.13398,-0.0894 2.13398,-7.19554 l 0,-7.19552 3.7078,2.07229 c 7.68876,4.29733 16.44523,3.4642 22.00173,-2.0923 5.72549,-5.7255 6.19448,-14.50155 1.13035,-21.1498 -2.52818,-3.31902 -7.38422,-5.18541 -12.39546,-5.35831 z m -1.2037,4.05791 c 6.52589,0.009 12.36711,4.18069 12.36711,10.85665 0,4.86681 -1.83734,8.51792 -5.37498,10.67494 -1.7957,1.0949 -4.19762,1.64728 -7.00213,1.61382 -4.73215,-0.0564 -7.08419,-0.80319 -10.7583,-3.41938 -2.31476,-1.64826 -2.47242,-2.13161 -2.47242,-7.61566 0,-5.71511 0.0766,-5.9174 3.1643,-8.46259 3.05297,-2.51651 6.65809,-3.65274 10.07642,-3.64778 z"
       id="path12811"
       inkscape:connector-curvature="0" />
    <path
       style="fill:#000000"
       d="m 197.88671,618.37481 c -8.00375,0 -13.52747,3.46671 -15.83484,9.93638 -3.17785,8.91042 0.55554,18.27752 8.38922,21.05144 9.59693,3.39827 20.17448,-0.0881 23.35382,-7.69736 1.3908,-3.32865 1.52028,-10.32552 0.2534,-13.66918 -2.20479,-5.81907 -8.59147,-9.62128 -16.1616,-9.62128 z m 0.82525,6.03018 c 1.30932,0.0457 2.61358,0.28364 3.8145,0.74023 2.6857,1.0211 5.59745,5.59344 5.60172,8.79769 0.005,3.84349 -2.22433,8.07912 -5.00988,9.51958 -4.86922,2.51798 -11.72424,0.78634 -13.65417,-3.44939 -1.20721,-2.64954 -1.25675,-9.29223 -0.0867,-11.47851 1.42667,-2.66575 5.40656,-4.26649 9.33452,-4.1296 z"
       id="path12807"
       inkscape:connector-curvature="0" />
    <path
       style="fill:#000000"
       d="m 275.5638,619.22841 c -9.32582,0 -16.09669,5.48403 -16.8835,13.67252 -0.77819,8.09874 3.53964,14.77623 10.90833,16.87015 4.34905,1.23584 7.67843,1.16629 12.48715,-0.26174 4.78948,-1.42232 7.30251,-3.68669 9.23949,-8.32255 4.73891,-11.3418 -2.87706,-21.95838 -15.75147,-21.95838 z m 0,4.03456 c 5.52517,0 9.17916,2.11192 11.14507,6.44198 2.02186,4.45323 2.02875,6.08981 0.0417,10.46486 -1.06756,2.35053 -2.55683,3.9427 -4.5914,4.90817 -6.84629,3.24877 -15.11531,0.96084 -17.78711,-4.9215 -1.98087,-4.36128 -1.974,-6.00084 0.0467,-10.45153 1.96591,-4.33006 5.61991,-6.44198 11.14508,-6.44198 z"
       id="path12803"
       inkscape:connector-curvature="0" />
    <path
       style="fill:#000000"
       d="m 323.90858,619.32678 c -2.62447,0.0188 -4.10168,0.47833 -6.51033,1.72386 -12.07256,6.24278 -10.71802,23.85677 2.18901,28.45536 6.45347,2.29927 14.46553,1.04609 19.27089,-3.01426 2.67016,-2.25617 2.76632,-2.51345 1.44544,-3.86617 -1.32828,-1.36033 -1.60691,-1.30075 -4.56473,0.95529 -4.01072,3.05912 -11.48986,3.86819 -15.68813,1.69718 -2.89358,-1.49632 -6.06674,-5.87209 -6.07186,-8.37423 -0.003,-1.36458 1.26009,-1.49379 14.60281,-1.49379 l 14.60613,0 -0.59352,-3.17096 c -1.51939,-8.09906 -6.52664,-12.20669 -15.60143,-12.79725 -1.2063,-0.0785 -2.20946,-0.12131 -3.08428,-0.11503 z m 2.17733,4.05123 c 2.52092,0.0363 5.00905,0.51732 6.552,1.42877 2.13891,1.26349 5.23827,5.21619 5.23827,6.68038 0,0.27967 -5.37764,0.50849 -11.95032,0.50849 -7.66859,0 -11.95032,-0.31658 -11.95032,-0.8836 0,-1.73842 2.85958,-5.20227 5.36331,-6.49699 1.673,-0.86514 4.22613,-1.27334 6.74706,-1.23705 z"
       id="path12799"
       inkscape:connector-curvature="0" />
    <path
       style="fill:#000000"
       d="m 96.309672,634.5562 0,-15.3647 3.414378,0 3.41438,0 0,15.3647 0,15.3647 -3.41438,0 -3.414378,0 0,-15.3647 z"
       id="path12795"
       inkscape:connector-curvature="0" />
    <path
       style="fill:#000000"
       d="m 109.96718,634.5562 0,-15.3647 3.41438,0 c 2.8621,0 3.41438,0.28027 3.41438,1.73275 0,1.70594 0.0396,1.70349 2.55839,-0.15876 3.41975,-2.52833 11.4462,-3.17476 15.21578,-1.22544 4.52909,2.34208 5.27287,4.93591 5.27287,18.38814 l 0,11.99271 -3.41437,0 -3.41438,0 0,-10.20297 c 0,-11.14556 -0.84303,-14.30186 -4.03386,-15.1027 -3.20392,-0.80414 -7.97536,0.30918 -10.17285,2.37361 -1.90203,1.78687 -2.01158,2.46276 -2.01158,12.41092 l 0,10.52114 -3.41438,0 -3.41438,0 0,-15.3647 z"
       id="path12793"
       inkscape:connector-curvature="0" />
    <path
       style="fill:#000000"
       d="m 146.67174,634.5562 0,-15.3647 3.41438,0 c 2.8621,0 3.41437,0.28027 3.41437,1.73275 0,1.7096 0.0338,1.70771 2.53435,-0.14098 3.34968,-2.47654 10.47594,-3.09536 14.80685,-1.28578 4.80089,2.00593 5.70585,4.99917 5.70585,18.87247 l 0,11.55094 -3.34654,0 -3.34654,0 -0.28124,-11.00987 c -0.23965,-9.3822 -0.52163,-11.27509 -1.90732,-12.80391 -2.15765,-2.38052 -7.45352,-2.38862 -11.29048,-0.0172 l -2.87493,1.77681 0,11.02711 0,11.02711 -3.41437,0 -3.41438,0 0,-15.3647 z"
       id="path12791"
       inkscape:connector-curvature="0" />
    <path
       style="fill:#000000"
       d="m 298.61153,629.00783 0,-20.91306 2.13399,0 2.13399,0 0,20.91306 0,20.91307 -2.13399,0 -2.13399,0 0,-20.91307 z"
       id="path12789"
       inkscape:connector-curvature="0" />
    <path
       style="fill:#000000"
       d="m 106.09301,604.70565 c -2.36554,-0.35664 -5.63054,-1.32031 -7.255555,-2.14149 -3.122269,-1.57778 -7.649349,-5.44301 -7.649349,-6.53103 0,-0.35503 1.554686,-1.57261 3.454855,-2.70574 l 3.454855,-2.06022 2.597654,2.42656 c 6.29193,5.87754 21.22203,5.14196 21.22203,-1.04557 0,-2.167 -0.65942,-2.4174 -11.32672,-4.30106 -11.891257,-2.0998 -15.964558,-4.16149 -17.614471,-8.91552 -0.676669,-1.94977 -0.950298,-4.44825 -0.627861,-5.73296 0.849446,-3.38445 5.323544,-8.03237 8.912052,-9.25828 5.15214,-1.76009 15.25183,-1.31281 20.34325,0.90093 3.9251,1.70663 9.72034,6.43661 8.78747,7.1722 -0.20052,0.15811 -1.83073,1.16964 -3.62271,2.24784 l -3.25813,1.96035 -2.29023,-2.18462 c -3.00492,-2.86637 -6.17808,-4.00042 -11.19342,-4.00042 -2.85261,0 -4.78052,0.53743 -6.34639,1.76914 -4.561318,3.58793 -2.49537,5.58829 7.43109,7.19517 11.12208,1.80044 14.29524,2.89009 17.36987,5.96472 2.35233,2.35232 2.82574,3.46242 2.82574,6.62604 0,5.21368 -2.76823,9.15405 -7.70368,10.96558 -4.90222,1.79933 -12.04759,2.47198 -17.51035,1.64838 z"
       id="path12787"
       inkscape:connector-curvature="0" />
    <path
       style="fill:#000000"
       d="m 203.37672,563.45135 c -5.32835,0.0401 -11.91124,2.29362 -15.18131,5.19659 -3.21519,2.85426 -5.65619,9.6002 -5.66507,15.66146 -0.0158,10.7194 6.46415,18.58929 16.74179,20.33455 11.0591,1.87796 22.5122,-3.21494 25.35108,-11.27345 0.46021,-1.30634 -0.0683,-1.49379 -4.20794,-1.49379 -4.0926,0 -5.07072,0.3376 -7.22555,2.49243 -2.91188,2.91188 -6.37266,3.86255 -11.34013,3.11762 -4.41145,-0.66153 -7.79301,-3.33909 -9.50624,-7.53064 l -1.30707,-3.20098 17.60705,0 17.60705,0 -0.58685,-4.05457 c -1.83857,-12.7323 -9.49454,-19.34545 -22.28681,-19.24922 z m 1.28539,7.07717 c 1.93302,0.0735 3.8887,0.53234 5.72509,1.40376 2.68032,1.2719 5.42499,4.86302 5.42499,7.09717 0,0.58292 -4.17559,0.89694 -11.95032,0.89694 -13.04606,0 -13.58876,-0.24564 -10.16645,-4.5964 2.56558,-3.26161 6.71404,-4.9632 10.96669,-4.80147 z"
       id="path12785"
       inkscape:connector-curvature="0" />
    <path
       style="fill:#000000"
       d="m 266.17426,550.90418 0,26.46143 0,26.46142 4.26797,0 c 3.98344,0 4.26797,-0.14227 4.26797,-2.13398 0,-2.15914 1.16383,-2.85156 2.13899,-1.27373 0.85271,1.37973 5.384,3.45964 9.23782,4.2413 16.23192,3.29227 28.92617,-11.06829 24.18906,-27.36337 -3.459,-11.89853 -18.34447,-17.59295 -30.2309,-11.5652 l -4.48137,2.27237 0,-8.55095 0,-8.54929 -4.69477,0 -4.69477,0 z m 21.6066,20.41458 c 3.02369,-0.0853 5.97263,0.49867 8.06413,1.77387 8.24474,5.02688 8.24474,17.17658 0,22.20346 -3.43211,2.09259 -11.03013,2.2365 -14.73283,0.28009 -5.31622,-2.80895 -5.54836,-3.30677 -5.54836,-11.90531 l 0,-7.94076 3.70279,-2.17066 c 2.39165,-1.40161 5.49059,-2.15544 8.51427,-2.24069 z"
       id="path12781"
       inkscape:connector-curvature="0" />
    <path
       style="fill:#00b83b;fill-opacity:1"
       d="m 364.09716,604.60222 c -7.09596,-1.6709 -11.65976,-5.52589 -14.93239,-12.61324 -5.08278,-11.00751 0.49696,-24.28921 12.05912,-28.70485 5.51964,-2.10796 13.80339,-1.50356 17.97262,1.31134 4.14179,2.79636 8.53016,9.38009 10.77681,16.16807 2.28068,6.89082 3.04489,8.38822 5.77499,11.31571 4.09675,4.39293 11.70662,3.84814 15.90257,-1.13847 3.10811,-3.69377 3.55838,-7.48401 1.45418,-12.24089 -1.43576,-3.24579 -2.47157,-4.27993 -5.73089,-5.72168 -4.49482,-1.98827 -7.67264,-1.71898 -11.44928,0.97022 l -2.4135,1.71857 -2.23911,-4.00621 c -1.23152,-2.20341 -2.03955,-4.52626 -1.79564,-5.16188 0.85677,-2.23271 7.48651,-4.46074 13.27341,-4.46074 12.55835,0 21.27748,8.6354 21.32111,21.11639 0.0313,8.96696 -3.58521,15.22903 -11.18873,19.37331 -3.75112,2.04453 -5.59214,2.49552 -10.13238,2.48208 -10.71945,-0.0317 -16.65044,-5.7735 -21.89671,-21.19818 -4.31291,-12.68048 -13.38351,-16.02394 -20.74035,-7.64497 -4.85471,5.52922 -2.85018,14.63144 3.93083,17.84924 3.9148,1.85769 9.10381,1.26388 11.89854,-1.36163 1.1257,-1.05753 2.14426,-1.76123 2.26349,-1.56376 0.11922,0.19747 1.25999,2.35241 2.53506,4.78876 l 2.3183,4.42973 -2.77058,1.7123 c -2.69854,1.6678 -9.10782,3.53639 -11.68236,3.40594 -0.70421,-0.0357 -2.73331,-0.40701 -4.50911,-0.82516 z"
       id="path12777"
       inkscape:connector-curvature="0" />
    <path
       style="fill:#000000"
       d="m 496.09123,563.22795 c -13.48401,-0.3105 -24.4197,10.57065 -21.64161,25.21938 1.65011,8.701 7.85931,14.67872 16.83681,16.20829 9.59853,1.63537 19.22048,-1.81876 23.40382,-8.40257 l 2.50911,-3.94954 -4.80147,-0.25841 c -4.2333,-0.22759 -5.04358,8.5e-4 -6.83043,1.92892 -6.5408,7.05763 -19.46483,3.96513 -22.1401,-5.29829 l -0.55517,-1.92059 17.62539,0 17.62373,0 -0.43681,-2.34738 c -0.24039,-1.29106 -0.65984,-3.72067 -0.93195,-5.39832 -0.75943,-4.68233 -5.00484,-10.69703 -8.98108,-12.72555 -3.93007,-2.00498 -7.90471,-2.96899 -11.68024,-3.05594 z m -1.05199,7.41394 c 0.71155,-0.005 1.47137,0.0254 2.2907,0.0933 4.09709,0.33976 5.09318,0.79981 7.56565,3.49774 1.56581,1.70861 2.84587,3.68858 2.84587,4.39968 0,1.09328 -1.84538,1.29373 -11.95032,1.29373 -8.09371,0 -11.95032,-0.30183 -11.95032,-0.93528 0,-2.10661 3.0987,-5.95309 5.84345,-7.25556 1.52632,-0.72426 3.22032,-1.07727 5.35497,-1.09366 z"
       id="path12775"
       inkscape:connector-curvature="0" />
    <path
       style="fill:#000000"
       d="m 137.2822,577.36538 0,-26.46143 4.23909,0 4.2391,0 0.24228,9.0002 0.24227,9.00019 2.87282,-2.12186 c 5.70755,-4.2156 16.11779,-4.5853 21.34208,-0.75792 4.60684,3.37503 5.23133,6.07823 5.23278,22.65094 l 0.002,15.1513 -4.19453,0 -4.19453,0 -0.28684,-14.01732 c -0.27561,-13.46826 -0.3679,-14.10352 -2.35622,-16.21829 -1.72766,-1.83753 -2.82932,-2.20097 -6.67148,-2.20097 -4.85477,0 -7.10807,0.80663 -10.25161,3.66984 -1.83713,1.67329 -1.92059,2.33636 -1.92059,15.25802 l 0,13.50872 -4.26797,0 -4.26798,0 0,-26.46142 z"
       id="path12771"
       inkscape:connector-curvature="0" />
    <path
       style="fill:#000000"
       d="m 232.88477,584.19413 0,-19.63267 4.69477,0 c 4.68217,0 4.69477,0.007 4.69477,2.64921 l 0,2.6492 2.93621,-2.57802 c 2.93547,-2.57738 11.43231,-5.144 13.2698,-4.00837 0.47623,0.29433 0.86587,2.52909 0.86587,4.96614 l 0,4.43099 -5.33496,0.0222 c -6.2317,0.0259 -9.42561,1.71147 -10.81946,5.70988 -0.50461,1.4475 -0.91746,7.7601 -0.91746,14.02797 l 0,11.39615 -4.69477,0 -4.69477,0 0,-19.63267 z"
       id="path12769"
       inkscape:connector-curvature="0" />
    <path
       style="fill:#000000"
       d="m 318.2442,584.19413 0,-19.63267 4.69477,0 c 4.68217,0 4.69477,0.007 4.69477,2.64921 l 0,2.6492 3.00324,-2.63687 c 3.22633,-2.83275 4.89752,-3.44518 10.22748,-3.74797 l 3.41437,-0.19396 0.25054,4.72534 0.25055,4.72533 -5.02527,-0.0306 c -10.44582,-0.0635 -12.12091,2.58059 -12.12091,19.13291 l 0,11.99271 -4.69477,0 -4.69477,0 0,-19.63267 z"
       id="path12767"
       inkscape:connector-curvature="0" />
    <path
       style="fill:#000000"
       d="m 431.77226,577.36538 0,-26.46143 4.26797,0 4.26797,0 0,14.5111 c 0,7.98111 0.28809,14.50055 0.64019,14.48765 0.35211,-0.0129 4.85722,-3.46996 10.01135,-7.68235 l 9.37115,-7.65889 6.38986,0 c 7.3009,0 7.53609,-0.6468 -2.77881,7.64205 -4.45463,3.57965 -6.50899,5.77559 -6.18736,6.61376 0.26483,0.69014 4.15209,6.59961 8.63834,13.13217 l 8.15685,11.87736 -5.59317,0 -5.59317,0 -6.53776,-9.81633 c -3.59578,-5.39899 -6.90534,-9.81634 -7.35459,-9.81634 -0.44924,0 -2.69468,1.57224 -4.98985,3.49387 l -4.17303,3.49386 0,6.32247 0,6.32247 -4.26797,0 -4.26797,0 0,-26.46142 z"
       id="path12763"
       inkscape:connector-curvature="0" />
  </g>
</svg>
