<svg width="639" height="147" viewBox="0 0 639 147" fill="none" xmlns="http://www.w3.org/2000/svg">
<g clip-path="url(#clip0_529_728)">
<path d="M324.2 62.4104C321.77 59.6104 320.56 55.2603 320.56 49.3603V29.6904L316.84 29.0504V26.3703H330.83V29.0504L326.38 29.7504V49.9504C326.38 54.8104 327.23 58.3104 328.92 60.4504C330.61 62.5904 333.05 63.6704 336.23 63.6704C339.41 63.6704 341.79 62.5303 343.38 60.2403C344.97 57.9503 345.76 54.6303 345.76 50.2703V29.7404L341.36 29.0403V26.3604H353.57V29.0403L349.74 29.6803V50.0004C349.74 55.5704 348.45 59.7403 345.86 62.4903C343.27 65.2403 339.83 66.6203 335.54 66.6203C330.41 66.6103 326.62 65.2104 324.2 62.4104Z" fill="black"/>
<path d="M357.89 40.5708L354.03 39.6107V36.7207L361.69 35.7607H361.85L362.98 36.7207V38.9707L362.93 40.2608C364.22 39.1208 365.91 38.0807 368.02 37.1507C370.13 36.2207 372.15 35.7607 374.08 35.7607C376.33 35.7607 378.07 36.1907 379.31 37.0507C380.54 37.9107 381.41 39.2207 381.91 40.9907C382.41 42.7607 382.66 45.1408 382.66 48.1408V63.1507L386.41 63.5307V66.2107H373.71V63.5807L377.03 63.1507V48.0907C377.03 45.9807 376.89 44.3308 376.6 43.1308C376.31 41.9308 375.78 41.0408 374.99 40.4508C374.2 39.8608 373.06 39.5708 371.56 39.5708C370.27 39.5708 368.9 39.8907 367.43 40.5307C365.96 41.1707 364.66 41.9207 363.52 42.7807V63.0907L367.16 63.5708V66.2008H354.51V63.5708L357.89 63.0907V40.5708Z" fill="black"/>
<path d="M394 40.5704L389.93 39.6104V36.7704L398.24 35.7504H398.35L399.58 36.7104V63.1304L403.87 63.5604V66.1904H389.67V63.5604L394.01 63.0804V40.5704H394ZM393.57 30.1204C393 29.4804 392.71 28.6504 392.71 27.6504C392.71 26.5104 393.06 25.5604 393.75 24.8104C394.45 24.0604 395.4 23.6904 396.62 23.6904C397.83 23.6904 398.73 24.0104 399.3 24.6504C399.87 25.2904 400.16 26.1204 400.16 27.1204C400.16 28.3404 399.81 29.3004 399.12 30.0104C398.43 30.7204 397.45 31.0804 396.2 31.0804H396.15C395 31.0804 394.14 30.7604 393.57 30.1204Z" fill="black"/>
<path d="M403.02 36.4404H415.45V38.9604L411.65 39.6604L417.06 55.0904L419.31 61.9004L421.24 55.3104L426.65 39.6604L423.01 38.9604V36.4404H433.89V38.9604L431.1 39.6604L420.76 66.6204H416.2L405.43 39.6604L403.02 38.9604V36.4404Z" fill="black"/>
<path d="M436.96 62.5399C434.69 59.7199 433.56 55.9499 433.56 51.2299C433.56 48.1199 434.15 45.3899 435.33 43.0299C436.51 40.6699 438.16 38.8499 440.29 37.5599C442.42 36.2699 444.84 35.6299 447.55 35.6299C450.87 35.6299 453.45 36.5499 455.29 38.3899C457.13 40.2299 458.1 42.8599 458.21 46.2899C458.21 48.4699 458.08 50.1299 457.83 51.2799H439.4C439.47 54.8199 440.29 57.6699 441.86 59.8299C443.43 61.9899 445.66 63.0699 448.56 63.0699C449.99 63.0699 451.48 62.8099 453.03 62.2899C454.58 61.7699 455.79 61.1599 456.65 60.4399L457.67 62.7999C456.63 63.8699 455.1 64.7999 453.06 65.5899C451.02 66.3799 448.95 66.7699 446.84 66.7699C442.53 66.7799 439.23 65.3599 436.96 62.5399ZM452.32 48.4499C452.43 47.6999 452.48 46.9299 452.48 46.1499C452.44 43.8299 451.95 41.9999 451.01 40.6599C450.06 39.3199 448.57 38.6499 446.54 38.6499C444.47 38.6499 442.82 39.3999 441.58 40.8999C440.35 42.3999 439.64 44.9199 439.46 48.4599H452.32V48.4499Z" fill="black"/>
<path d="M460.83 63.5606L464.85 63.2406V40.5706L460.99 39.6106V36.7206L468.39 35.7606H468.5L469.68 36.7206V37.6806L469.52 41.8606H469.68C470.04 41.2506 470.68 40.4706 471.61 39.5006C472.54 38.5406 473.74 37.6506 475.2 36.8506C476.66 36.0406 478.25 35.6406 479.97 35.6406C480.68 35.6406 481.27 35.7306 481.74 35.9106V41.9106C481.49 41.7306 481.09 41.5606 480.53 41.4006C479.98 41.2406 479.36 41.1606 478.68 41.1606C475.71 41.1606 472.96 42.0706 470.43 43.8906V63.1806L477.24 63.6106V66.1806H460.84V63.5606H460.83Z" fill="black"/>
<path d="M489.47 61.9005C489.83 62.4405 490.59 62.9206 491.75 63.3506C492.91 63.7806 494.13 63.9905 495.42 63.9905C497.46 63.9905 498.96 63.6005 499.92 62.8105C500.88 62.0305 501.37 60.9306 501.37 59.5406C501.37 58.5806 501.07 57.7405 500.46 57.0205C499.85 56.3105 499 55.6705 497.91 55.1205C496.82 54.5705 495.26 53.9005 493.22 53.1105C490.47 52.0705 488.46 50.8306 487.19 49.3906C485.92 47.9406 485.29 46.0405 485.29 43.6805C485.29 42.1105 485.76 40.7305 486.71 39.5605C487.66 38.3805 488.96 37.4606 490.62 36.8006C492.28 36.1406 494.13 35.8105 496.17 35.8105C497.81 35.8105 499.25 35.9406 500.48 36.1906C501.71 36.4406 502.7 36.6906 503.45 36.9406C504.2 37.1906 504.7 37.3506 504.95 37.4206V44.0706H501.68L500.61 40.1006C500.4 39.6706 499.82 39.3105 498.9 39.0005C497.97 38.7005 496.93 38.5505 495.79 38.5505C494.18 38.5505 492.89 38.9105 491.9 39.6205C490.92 40.3305 490.43 41.3006 490.43 42.5106C490.43 43.5806 490.69 44.4706 491.21 45.1606C491.73 45.8606 492.38 46.4206 493.17 46.8506C493.96 47.2806 495.03 47.7806 496.39 48.3506L497.46 48.7805C499.46 49.5705 501.09 50.3205 502.34 51.0305C503.59 51.7405 504.64 52.6805 505.47 53.8405C506.31 55.0005 506.73 56.4206 506.73 58.1006C506.73 60.7406 505.7 62.8506 503.65 64.4206C501.6 65.9906 498.78 66.7805 495.21 66.7805C493.46 66.7805 491.63 66.5405 489.72 66.0605C487.81 65.5805 486.25 65.0905 485.03 64.5905V57.7306H488.51L489.47 61.9005Z" fill="black"/>
<path d="M514 40.5704L509.93 39.6104V36.7704L518.24 35.7504H518.35L519.58 36.7104V63.1304L523.87 63.5604V66.1904H509.67V63.5604L514.01 63.0804V40.5704H514ZM513.58 30.1204C513.01 29.4804 512.72 28.6504 512.72 27.6504C512.72 26.5104 513.07 25.5604 513.76 24.8104C514.46 24.0604 515.41 23.6904 516.63 23.6904C517.84 23.6904 518.74 24.0104 519.31 24.6504C519.88 25.2904 520.17 26.1204 520.17 27.1204C520.17 28.3404 519.82 29.3004 519.13 30.0104C518.44 30.7204 517.46 31.0804 516.21 31.0804H516.16C515 31.0804 514.15 30.7604 513.58 30.1204Z" fill="black"/>
<path d="M530.09 65.3307C529.09 64.4007 528.59 62.8107 528.59 60.5607V39.9807H524.73V37.5707C524.91 37.5307 525.41 37.4107 526.23 37.1907C527.05 36.9807 527.6 36.7807 527.89 36.6007C528.46 36.2807 528.91 35.6307 529.23 34.6707C529.52 33.9907 529.85 32.9007 530.25 31.4007C530.64 29.9007 530.87 29.0107 530.95 28.7207H534.11L534.22 36.4307H543.17V39.9707H534.22V56.4207C534.22 58.4607 534.28 59.8907 534.41 60.7107C534.53 61.5307 534.8 62.0707 535.21 62.3207C535.62 62.5707 536.33 62.6907 537.33 62.6907C538.29 62.6907 539.36 62.5707 540.52 62.3207C541.68 62.0707 542.58 61.8007 543.23 61.5207L544.03 63.9307C543.17 64.5707 541.79 65.2007 539.88 65.8107C537.97 66.4207 536.23 66.7207 534.65 66.7207C532.61 66.7207 531.09 66.2607 530.09 65.3307Z" fill="black"/>
<path d="M548.98 62.5399C546.71 59.7199 545.58 55.9499 545.58 51.2299C545.58 48.1199 546.17 45.3899 547.35 43.0299C548.53 40.6699 550.18 38.8499 552.31 37.5599C554.44 36.2699 556.86 35.6299 559.57 35.6299C562.89 35.6299 565.47 36.5499 567.31 38.3899C569.15 40.2299 570.12 42.8599 570.23 46.2899C570.23 48.4699 570.1 50.1299 569.85 51.2799H551.42C551.49 54.8199 552.31 57.6699 553.88 59.8299C555.45 61.9899 557.68 63.0699 560.58 63.0699C562.01 63.0699 563.5 62.8099 565.05 62.2899C566.6 61.7699 567.81 61.1599 568.67 60.4399L569.69 62.7999C568.65 63.8699 567.12 64.7999 565.08 65.5899C563.04 66.3799 560.97 66.7699 558.86 66.7699C554.54 66.7799 551.25 65.3599 548.98 62.5399ZM564.33 48.4499C564.44 47.6999 564.49 46.9299 564.49 46.1499C564.45 43.8299 563.96 41.9999 563.02 40.6599C562.07 39.3199 560.58 38.6499 558.55 38.6499C556.48 38.6499 554.83 39.3999 553.59 40.8999C552.36 42.3999 551.65 44.9199 551.47 48.4599H564.33V48.4499Z" fill="black"/>
<path d="M590.64 65.1703C588.92 64.1003 587.55 62.4603 586.54 60.2403C585.53 58.0303 585.02 55.2903 585.02 52.0403C585.02 49.0003 585.62 46.2403 586.82 43.7403C588.02 41.2403 589.75 39.2603 592 37.8203C594.25 36.3703 596.91 35.6503 599.97 35.6503C601.72 35.6503 603.32 35.8503 604.76 36.2403V26.2203L599.5 25.5803V23.2803L608.78 22.3203H608.93L610.06 23.1803V63.4803H613.05V65.9503C611.95 66.2003 611 66.4003 610.19 66.5403C609.38 66.6803 608.53 66.7503 607.64 66.7503C606.75 66.7503 606.11 66.5903 605.73 66.2703C605.35 65.9503 605.16 65.2703 605.16 64.2303V62.5203C604.2 63.7403 602.93 64.7503 601.37 65.5803C599.81 66.4003 598.11 66.8103 596.29 66.8103C594.25 66.7803 592.36 66.2403 590.64 65.1703ZM602.14 62.0303C603.31 61.4003 604.18 60.6803 604.77 59.8603V40.2503C604.49 39.8203 603.85 39.4403 602.84 39.1003C601.83 38.7603 600.75 38.5903 599.62 38.5903C596.94 38.5903 594.8 39.6503 593.2 41.7803C591.6 43.9103 590.8 47.1903 590.8 51.6203C590.8 55.4803 591.5 58.3403 592.91 60.1903C594.32 62.0503 596.14 62.9803 598.38 62.9803C599.71 62.9703 600.97 62.6603 602.14 62.0303Z" fill="black"/>
<path d="M618.13 62.5399C615.95 59.7199 614.86 55.9499 614.86 51.2299C614.86 48.1199 615.43 45.3899 616.56 43.0299C617.69 40.6699 619.28 38.8499 621.33 37.5599C623.37 36.2699 625.7 35.6299 628.32 35.6299C631.52 35.6299 634 36.5499 635.77 38.3899C637.54 40.2299 638.48 42.8599 638.58 46.2899C638.58 48.4699 638.46 50.1299 638.22 51.2799H620.48C620.55 54.8199 621.34 57.6699 622.85 59.8299C624.36 61.9899 626.51 63.0699 629.29 63.0699C630.66 63.0699 632.1 62.8099 633.6 62.2899C635.1 61.7699 636.26 61.1599 637.08 60.4399L638.06 62.7999C637.06 63.8699 635.59 64.7999 633.63 65.5899C631.67 66.3799 629.68 66.7699 627.65 66.7699C623.48 66.7799 620.31 65.3599 618.13 62.5399ZM632.9 48.4499C633 47.6999 633.05 46.9299 633.05 46.1499C633.02 43.8299 632.54 41.9999 631.63 40.6599C630.72 39.3199 629.28 38.6499 627.32 38.6499C625.33 38.6499 623.74 39.3999 622.55 40.8999C621.36 42.3999 620.68 44.9199 620.51 48.4599H632.9V48.4499Z" fill="black"/>
<path d="M318.97 118.36C319.58 118.42 320.44 118.65 321.61 119.06C323.56 119.64 325.37 120.12 327.01 120.47C328.64 120.82 330.51 121 332.58 121C336 121 338.94 120.38 341.34 119.16C343.74 117.94 345.54 116.36 346.71 114.47C347.88 112.57 348.47 110.57 348.47 108.53C348.47 106.37 347.88 104.48 346.72 102.92C345.55 101.35 344.14 100.06 342.51 99.0901C340.88 98.1201 338.74 97.0101 336.15 95.8001C333.35 94.5101 331.28 93.4801 330.01 92.7401C328.72 91.9901 327.63 91.0802 326.77 90.0102C325.9 88.9402 325.46 87.5902 325.46 86.0102C325.46 83.8302 326.19 82.1502 327.63 81.0002C329.06 79.8502 331.2 79.2701 333.97 79.2701C335.46 79.2701 336.85 79.4501 338.12 79.8001C339.39 80.1501 340.24 80.5402 340.66 80.9402L340.68 80.9601L340.69 80.9901L341.88 88.1402H345.37L345.72 78.4502C345.17 78.3602 344.51 78.1901 343.75 77.9301C341.96 77.4601 340.33 77.0902 338.92 76.8202C337.5 76.5502 335.86 76.4102 334.04 76.4102C331.11 76.4102 328.5 76.9001 326.3 77.8701C324.1 78.8401 322.39 80.1801 321.23 81.8601C320.07 83.5401 319.47 85.4701 319.47 87.5901C319.47 89.9501 320.08 92.0002 321.29 93.6702C322.5 95.3602 323.95 96.7202 325.59 97.7302C327.24 98.7402 329.21 99.7502 331.44 100.72C333.9 101.77 335.87 102.7 337.31 103.49C338.74 104.28 339.9 105.24 340.77 106.34C341.64 107.45 342.08 108.8 342.08 110.34C342.08 112.71 341.27 114.6 339.67 115.94C338.08 117.28 335.72 117.96 332.66 117.96C330.82 117.96 329.1 117.71 327.55 117.22C326 116.73 324.87 116.16 324.18 115.52L324.15 115.5L324.14 115.46L323.13 107.9H319.46L318.97 118.36Z" fill="black"/>
<path d="M354.37 80.5204L349.77 79.9304V77.6304L358.7 76.6104H358.81L360.02 77.4104V89.8404L359.8 94.3904C360.97 93.3504 362.58 92.3704 364.62 91.4404C366.67 90.5104 368.73 90.0504 370.81 90.0504C373.11 90.0504 374.9 90.4804 376.18 91.3404C377.46 92.2004 378.35 93.5104 378.87 95.2804C379.38 97.0504 379.64 99.4304 379.64 102.43V117.38L383.48 117.86V120.49H370.38V117.86L373.94 117.38V102.37C373.94 100.26 373.79 98.6104 373.5 97.4104C373.21 96.2104 372.66 95.3204 371.86 94.7304C371.06 94.1404 369.85 93.8504 368.24 93.8504C366.92 93.8504 365.52 94.1704 364.02 94.8104C362.52 95.4504 361.21 96.2004 360.07 97.0604V117.37L363.85 117.85V120.48H351.08V117.85L354.37 117.42V80.5204Z" fill="black"/>
<path d="M389.99 116.86C387.67 114.04 386.51 110.27 386.51 105.55C386.51 102.44 387.11 99.7102 388.32 97.3502C389.53 94.9902 391.22 93.1702 393.39 91.8802C395.56 90.5902 398.04 89.9502 400.82 89.9502C404.22 89.9502 406.86 90.8702 408.74 92.7102C410.62 94.5502 411.62 97.1802 411.73 100.61C411.73 102.79 411.6 104.45 411.35 105.6H392.49C392.56 109.14 393.4 111.99 395.01 114.15C396.62 116.31 398.9 117.39 401.86 117.39C403.32 117.39 404.85 117.13 406.44 116.61C408.03 116.09 409.26 115.48 410.14 114.76L411.18 117.12C410.12 118.19 408.55 119.12 406.47 119.91C404.39 120.7 402.27 121.09 400.11 121.09C395.68 121.09 392.31 119.68 389.99 116.86ZM405.69 102.76C405.8 102.01 405.85 101.24 405.85 100.46C405.81 98.1402 405.31 96.3102 404.34 94.9702C403.37 93.6302 401.85 92.9602 399.76 92.9602C397.64 92.9602 395.95 93.7102 394.69 95.2102C393.43 96.7102 392.71 99.2302 392.53 102.77H405.69V102.76Z" fill="black"/>
<path d="M416.01 117.88L420.12 117.56V94.89L416.17 93.93V91.04L423.73 90.08H423.84L425.05 91.04V92L424.89 96.18H425.05C425.41 95.57 426.07 94.79 427.02 93.82C427.97 92.86 429.19 91.97 430.69 91.17C432.19 90.36 433.81 89.96 435.57 89.96C436.3 89.96 436.9 90.05 437.38 90.23V96.23C437.12 96.05 436.71 95.88 436.15 95.72C435.58 95.56 434.95 95.48 434.26 95.48C431.23 95.48 428.41 96.39 425.82 98.21V117.5L432.78 117.93V120.5H416.01V117.88Z" fill="black"/>
<path d="M437.89 77.6304L446.66 76.6104H446.77L448.03 77.4104V93.5404C449.13 92.5004 450.43 91.6504 451.95 90.9704C453.47 90.2904 455.16 89.9504 457.02 89.9504C459.21 89.9504 461.21 90.4704 463.02 91.5004C464.83 92.5404 466.27 94.1404 467.35 96.3204C468.43 98.5004 468.97 101.25 468.97 104.57C468.97 107.64 468.32 110.43 467.02 112.93C465.72 115.43 463.87 117.41 461.46 118.88C459.05 120.35 456.25 121.08 453.07 121.08C450.55 121.08 448.25 120.84 446.16 120.36C444.08 119.88 442.82 119.44 442.38 119.05V80.4604L437.89 79.8704V77.6304ZM450.91 94.7004C449.72 95.3304 448.76 96.0304 448.03 96.8204V116.54C448.25 117.04 448.88 117.44 449.92 117.75C450.96 118.05 452.14 118.2 453.46 118.2C456.27 118.2 458.54 117.09 460.26 114.88C461.98 112.66 462.84 109.43 462.84 105.18C462.84 101.36 462.09 98.5004 460.59 96.6004C459.09 94.7104 457.15 93.7604 454.78 93.7604C453.38 93.7604 452.09 94.0704 450.91 94.7004Z" fill="black"/>
<path d="M472.6 117.88L476.71 117.56V94.89L472.76 93.93V91.04L480.32 90.08H480.43L481.64 91.04V92L481.48 96.18H481.64C482 95.57 482.66 94.79 483.61 93.82C484.56 92.86 485.78 91.97 487.28 91.17C488.78 90.36 490.4 89.96 492.16 89.96C492.89 89.96 493.49 90.05 493.97 90.23V96.23C493.71 96.05 493.3 95.88 492.74 95.72C492.17 95.56 491.54 95.48 490.85 95.48C487.82 95.48 485 96.39 482.41 98.21V117.5L489.37 117.93V120.5H472.6V117.88Z" fill="black"/>
<path d="M498.98 97.1902C500.33 94.8302 502.11 93.0402 504.32 91.8002C506.53 90.5702 508.9 89.9502 511.42 89.9502C516.02 89.9502 519.49 91.3802 521.81 94.2402C524.13 97.1002 525.29 100.85 525.29 105.49C525.29 108.74 524.61 111.55 523.26 113.9C521.91 116.26 520.13 118.05 517.92 119.26C515.71 120.48 513.34 121.08 510.82 121.08C506.22 121.08 502.75 119.65 500.43 116.79C498.11 113.93 496.95 110.18 496.95 105.54C496.95 102.33 497.63 99.5502 498.98 97.1902ZM516.96 114.98C518.31 112.94 518.99 109.92 518.99 105.92C518.99 101.95 518.37 98.8102 517.13 96.4902C515.89 94.1702 513.9 93.0102 511.16 93.0102C508.64 93.0102 506.69 94.0302 505.32 96.0702C503.95 98.1102 503.26 101.13 503.26 105.13C503.26 109.1 503.9 112.24 505.18 114.56C506.46 116.88 508.45 118.04 511.15 118.04C513.67 118.04 515.6 117.02 516.96 114.98Z" fill="black"/>
<path d="M532.07 97.1902C533.42 94.8302 535.2 93.0402 537.41 91.8002C539.62 90.5702 541.99 89.9502 544.51 89.9502C549.11 89.9502 552.58 91.3802 554.9 94.2402C557.22 97.1002 558.38 100.85 558.38 105.49C558.38 108.74 557.7 111.55 556.35 113.9C555 116.26 553.22 118.05 551.01 119.26C548.8 120.48 546.43 121.08 543.91 121.08C539.31 121.08 535.84 119.65 533.52 116.79C531.2 113.93 530.04 110.18 530.04 105.54C530.04 102.33 530.72 99.5502 532.07 97.1902ZM550.05 114.98C551.4 112.94 552.08 109.92 552.08 105.92C552.08 101.95 551.46 98.8102 550.22 96.4902C548.98 94.1702 546.99 93.0102 544.25 93.0102C541.73 93.0102 539.78 94.0302 538.41 96.0702C537.04 98.1102 536.35 101.13 536.35 105.13C536.35 109.1 536.99 112.24 538.27 114.56C539.55 116.88 541.54 118.04 544.24 118.04C546.76 118.04 548.7 117.02 550.05 114.98Z" fill="black"/>
<path d="M565.36 80.5204L561.08 79.9304V77.6304L569.8 76.6104H569.85L571.06 77.4104V103.62L570.95 106.78L583.61 93.9704L579.5 93.2204V90.7504H592.76V93.2204L588.43 93.9704L580.37 101.63L590.78 117.44L594.18 117.87V120.5H580.86V117.87L584.31 117.39L576.58 104.96L570.93 110.43L571.04 113.16V117.39L574.93 117.87V120.5H561.88V117.87L565.33 117.39V80.5204H565.36Z" fill="black"/>
<path d="M598.57 116.86C596.25 114.04 595.09 110.27 595.09 105.55C595.09 102.44 595.69 99.7102 596.9 97.3502C598.11 94.9902 599.8 93.1702 601.97 91.8802C604.14 90.5902 606.62 89.9502 609.4 89.9502C612.8 89.9502 615.44 90.8702 617.32 92.7102C619.2 94.5502 620.2 97.1802 620.31 100.61C620.31 102.79 620.18 104.45 619.93 105.6H601.07C601.14 109.14 601.98 111.99 603.59 114.15C605.2 116.31 607.48 117.39 610.44 117.39C611.9 117.39 613.43 117.13 615.02 116.61C616.61 116.09 617.84 115.48 618.72 114.76L619.76 117.12C618.7 118.19 617.13 119.12 615.05 119.91C612.97 120.7 610.85 121.09 608.69 121.09C604.26 121.09 600.89 119.68 598.57 116.86ZM614.27 102.76C614.38 102.01 614.43 101.24 614.43 100.46C614.39 98.1402 613.89 96.3102 612.92 94.9702C611.95 93.6302 610.43 92.9602 608.34 92.9602C606.22 92.9602 604.53 93.7102 603.27 95.2102C602.01 96.7102 601.29 99.2302 601.11 102.77H614.27V102.76Z" fill="black"/>
<path d="M556.64 30.2203L561.31 23.3203H567.14L567.19 23.4703L560.37 30.2203H556.87H556.64Z" fill="black"/>
<path d="M286.47 0.209961H0.390015V146.72H286.47V0.209961Z" fill="#00A759"/>
<path d="M48.59 110.63C42.79 104.08 39.89 93.9197 39.89 80.1597V39.4097C39.89 36.4197 37.73 33.8597 34.78 33.3697L31 32.7297V26.4697H61.73V32.7297L58.39 33.4097C55.71 33.9597 53.78 36.3197 53.78 39.0597V81.5397C53.78 92.8897 55.8 101.06 59.85 106.07C63.9 111.08 69.72 113.58 77.31 113.58C84.9 113.58 90.6 110.91 94.39 105.57C98.19 100.23 100.08 92.4697 100.08 82.2897V39.3297C100.08 36.4397 98.05 33.9397 95.21 33.3497L92.25 32.7297V26.4697H118.72V32.7297L114.87 33.3597C111.82 33.8597 109.58 36.4997 109.58 39.5897V81.6597C109.58 94.6797 106.49 104.4 100.32 110.82C94.14 117.25 85.93 120.46 75.67 120.46C63.42 120.45 54.38 117.18 48.59 110.63Z" fill="white"/>
<path d="M210.75 120.02C207.33 119.27 203.61 118.15 199.49 117.02C196.86 116.3 193.86 115.52 193.86 115.52L194.86 92.87H202.87C202.87 92.87 203.05 106.64 205 109.14C206.01 110.44 208.73 111.66 211.95 112.71C215.16 113.75 218.69 114.27 222.52 114.27C228.86 114.27 233.68 112.85 236.97 110.02C240.26 107.18 241.91 103.26 241.91 98.2601C241.91 95.0101 241.01 92.21 239.22 89.87C237.42 87.54 235.05 85.53 232.09 83.86C229.13 82.19 225.06 80.2301 219.89 77.9801C215.22 75.9001 211.15 73.7701 207.69 71.6001C204.23 69.4301 201.22 66.53 198.68 62.9C196.13 59.27 194.86 54.9101 194.86 49.8201C194.86 45.2301 196.09 41.12 198.55 37.49C201.01 33.86 204.56 31 209.19 28.92C213.82 26.84 219.22 25.79 225.4 25.79C229.24 25.79 232.64 26.08 235.6 26.67C238.56 27.25 241.92 28.05 245.67 29.05C247.4 29.59 249.92 30.18 249.92 30.18L249.17 51.2001H241.54C241.54 51.2001 241.64 38.36 239.04 35.81C238.15 34.93 236.47 34.18 233.85 33.43C231.22 32.68 228.36 32.3 225.28 32.3C219.52 32.3 215.16 33.51 212.2 35.93C209.24 38.35 207.76 41.85 207.76 46.44C207.76 49.78 208.66 52.57 210.45 54.83C212.24 57.08 214.47 59 217.15 60.59C219.82 62.18 224.07 64.3401 229.91 67.1001C235.33 69.6901 239.75 72.02 243.18 74.11C246.6 76.2 249.54 78.93 252 82.31C254.46 85.69 255.69 89.7101 255.69 94.3901C255.69 98.8101 254.46 103.07 252 107.15C249.54 111.24 245.78 114.6 240.74 117.22C235.69 119.85 229.58 121.16 222.41 121.16C218.05 121.14 214.17 120.77 210.75 120.02Z" fill="white"/>
<path d="M180.6 57.9305C177.99 53.5905 174.34 50.1805 169.67 47.7005C165 45.2205 157.39 43.9805 151.17 43.9805H132.27H126.74V48.4505C126.74 48.4505 132.27 48.4405 132.27 51.5405C132.27 51.5405 132.15 65.3305 132.15 73.4105C132.15 81.5005 132.27 95.3604 132.27 95.3604C132.27 97.9304 126.74 98.4105 126.74 98.4105V102.84H151.51C157.7 102.84 165.27 101.59 169.91 99.1005C174.55 96.6105 178.14 93.1804 180.7 88.8304C183.25 84.4804 184.53 79.5405 184.53 74.0105V72.8405C184.52 67.2405 183.21 62.2705 180.6 57.9305ZM174.24 73.9305C174.24 78.6005 173.27 82.7805 171.33 86.4505C169.39 90.1305 166.66 93.0205 163.13 95.1305C159.6 97.2405 153.85 98.2905 149.15 98.2905H141.32V48.5305H148.89C153.62 48.5305 159.4 49.5805 162.95 51.6705C166.5 53.7705 169.27 56.6505 171.26 60.3205C173.25 63.9905 174.24 68.1905 174.24 72.9305V73.9305Z" fill="white"/>
</g>
<defs>
<clipPath id="clip0_529_728">
<rect width="639" height="147" fill="white"/>
</clipPath>
</defs>
</svg>
